<svg xmlns="http://www.w3.org/2000/svg" style="position: absolute; width: 0; height: 0; overflow: hidden;" xmlns:xlink="http://www.w3.org/1999/xlink" version="1.1">
<defs>
<symbol id="icon-info-large" viewBox="0 0 24 24">
<path d="M 13.839 17.525 c -0.006 0.002 -0.559 0.186 -1.039 0.186 c -0.265 0 -0.372 -0.055 -0.406 -0.079 c -0.168 -0.117 -0.48 -0.336 0.054 -1.4 l 1 -1.994 c 0.593 -1.184 0.681 -2.329 0.245 -3.225 c -0.356 -0.733 -1.039 -1.236 -1.92 -1.416 c -0.317 -0.065 -0.639 -0.097 -0.958 -0.097 c -1.849 0 -3.094 1.08 -3.146 1.126 c -0.179 0.158 -0.221 0.42 -0.102 0.626 c 0.12 0.206 0.367 0.3 0.595 0.222 c 0.005 -0.002 0.559 -0.187 1.039 -0.187 c 0.263 0 0.369 0.055 0.402 0.078 c 0.169 0.118 0.482 0.34 -0.051 1.402 l -1 1.995 c -0.594 1.185 -0.681 2.33 -0.245 3.225 c 0.356 0.733 1.038 1.236 1.921 1.416 c 0.314 0.063 0.636 0.097 0.954 0.097 c 1.85 0 3.096 -1.08 3.148 -1.126 c 0.179 -0.157 0.221 -0.42 0.102 -0.626 c -0.12 -0.205 -0.369 -0.297 -0.593 -0.223 Z" />
<path d="M 15.5 6.001 c 0 1.381 -1.119 2.5 -2.5 2.5 s -2.5 -1.119 -2.5 -2.5 c 0 -1.381 1.119 -2.5 2.5 -2.5 s 2.5 1.119 2.5 2.5 Z" />
</symbol>
<symbol id="icon-waitlist_package" viewBox="0 0 32 32">
<path d="M 26.96 18.613 l 0.16 -9.2 c 0 0 0 0 0 0 s 0 0 0 0 c 0 -0.027 0 -0.08 0 -0.107 c 0 0 0 -0.027 0 -0.027 c 0 -0.027 -0.027 -0.053 -0.027 -0.08 c 0 0 0 -0.027 -0.027 -0.027 c 0 -0.027 -0.027 -0.053 -0.053 -0.08 c 0 0 0 0 0 -0.027 c -0.027 -0.027 -0.053 -0.053 -0.08 -0.08 c 0 0 -0.027 -0.027 -0.027 -0.027 c -0.027 -0.027 -0.053 -0.027 -0.053 -0.053 c 0 0 -0.027 -0.027 -0.027 -0.027 c -0.027 -0.027 -0.053 -0.027 -0.08 -0.053 c 0 0 -0.027 0 -0.027 -0.027 c 0 0 0 0 0 0 l -11.307 -4.64 c -0.16 -0.08 -0.347 -0.08 -0.507 0 l -5.12 2.16 c 0 0 0 0 0 0 l -5.84 2.48 c -0.027 0.027 -0.08 0.027 -0.107 0.053 c 0 0 0 0 0 0 s 0 0 0 0 c -0.027 0.027 -0.08 0.053 -0.107 0.107 c 0 0 0 0 0 0 c -0.027 0.027 -0.053 0.08 -0.08 0.107 c 0 0 0 0.027 0 0.027 c -0.027 0.053 -0.027 0.08 -0.053 0.133 c 0 0 0 0.027 0 0.027 c 0 0.053 -0.027 0.08 -0.027 0.133 c 0 0 0 0 0 0 v 13.84 c 0 0.267 0.16 0.507 0.4 0.613 l 10.96 4.853 c 0.08 0.053 0.187 0.053 0.293 0.053 s 0.187 -0.027 0.293 -0.053 l 5.76 -2.533 c 0.907 1.2 2.32 1.973 3.92 1.973 c 2.72 0 4.933 -2.213 4.933 -4.933 c -0.053 -2.08 -1.36 -3.867 -3.173 -4.587 Z M 25.147 26.8 c -1.973 0 -3.6 -1.627 -3.6 -3.6 s 1.627 -3.6 3.6 -3.6 s 3.6 1.627 3.6 3.6 s -1.627 3.6 -3.6 3.6 Z M 15.173 5.493 l 9.467 3.893 l -3.76 1.467 l -9.147 -3.893 l 3.44 -1.467 Z M 15.173 13.093 l -4.213 -1.68 l -4.987 -2 l 4.08 -1.733 l 9.093 3.893 l -3.973 1.52 Z M 4.88 22.8 v -12.4 l 1.013 0.4 l 8.613 3.467 v 12.827 l -9.627 -4.293 Z M 15.84 27.093 v -12.827 l 4.373 -1.707 v 3.573 c 0 0.373 0.293 0.667 0.667 0.667 s 0.667 -0.293 0.667 -0.667 v -4.107 l 4.213 -1.627 l -0.133 7.893 c -0.16 -0.027 -0.32 -0.027 -0.48 -0.027 c -2.72 0 -4.933 2.213 -4.933 4.933 c 0 0.64 0.133 1.253 0.347 1.787 l -4.72 2.107 Z" />
<path d="M 26.88 24.453 l -1.44 -0.827 v -2.293 c 0 -0.24 -0.213 -0.453 -0.453 -0.453 h -0.027 c -0.24 0 -0.453 0.213 -0.453 0.453 v 2.773 c 0 0 0 0 0 0 c 0 0.027 0.027 0.053 0.053 0.08 l 1.84 1.067 c 0.213 0.133 0.507 0.053 0.64 -0.16 c 0.133 -0.24 0.08 -0.507 -0.16 -0.64 Z" />
</symbol>
<symbol id="icon-footer-logo-icon" viewBox="0 0 32 32">
<path d="M 15.915 1.461 c -7.925 0 -14.347 6.421 -14.347 14.347 s 6.421 14.347 14.347 14.347 s 14.347 -6.421 14.347 -14.347 s -6.421 -14.347 -14.347 -14.347 Z M 7.595 14.507 c 0.096 -0.139 0.267 -0.213 0.437 -0.213 h 0.405 c 0.096 0 0.16 -0.021 0.203 -0.032 l 2.667 -7.584 c 0.16 -0.384 0.523 -0.629 0.949 -0.629 c 0.448 0 0.811 0.213 0.949 0.565 l 0.011 0.032 l 0.011 0.053 l 2.645 7.371 l 2.72 -7.499 c 0.149 -0.363 0.491 -0.576 0.949 -0.576 c 0.469 0 0.811 0.224 0.949 0.629 l 2.645 7.563 c 0.021 0.011 0.075 0.053 0.213 0.053 h 0.405 c 0.299 0 0.565 0.267 0.565 0.565 s -0.267 0.565 -0.565 0.565 h -0.405 c -0.608 0 -1.12 -0.32 -1.248 -0.789 l -2.56 -7.296 l -2.581 7.541 c -0.139 0.288 -0.416 0.491 -0.747 0.555 h -0.459 c -0.064 0 -0.213 0 -0.331 -0.085 c -0.171 -0.075 -0.331 -0.213 -0.416 -0.373 h -0.043 l -2.784 -7.659 l -2.475 7.328 c -0.192 0.459 -0.693 0.768 -1.248 0.768 h -0.405 c -0.288 0 -0.544 -0.245 -0.565 -0.533 c 0.011 -0.107 0.032 -0.224 0.107 -0.32 Z M 23.829 17.472 h -0.405 c -0.139 0 -0.203 0.043 -0.213 0.053 l -2.656 7.563 c -0.128 0.395 -0.48 0.629 -0.949 0.629 c -0.448 0 -0.811 -0.213 -0.949 -0.565 l -2.709 -7.52 l -2.667 7.456 c -0.149 0.373 -0.491 0.576 -0.949 0.576 c -0.427 0 -0.789 -0.235 -0.949 -0.608 l -2.656 -7.573 c -0.032 -0.011 -0.107 -0.043 -0.213 -0.043 h -0.405 c -0.181 0 -0.341 -0.075 -0.437 -0.203 c -0.075 -0.107 -0.096 -0.235 -0.075 -0.341 c 0.021 -0.277 0.288 -0.523 0.565 -0.523 h 0.405 c 0.555 0 1.045 0.309 1.248 0.757 v 0.011 l 2.475 7.328 l 2.784 -7.648 h 0.043 c 0.085 -0.16 0.245 -0.299 0.405 -0.373 c 0.117 -0.085 0.267 -0.085 0.341 -0.085 h 0.437 c 0.341 0.064 0.608 0.256 0.757 0.544 l 0.011 0.021 l 2.571 7.509 l 2.571 -7.307 c 0.139 -0.459 0.64 -0.779 1.248 -0.779 h 0.405 c 0.299 0 0.565 0.267 0.565 0.565 c -0.021 0.309 -0.288 0.555 -0.597 0.555 Z" />
</symbol>
<symbol id="icon-logo-icon" viewBox="0 0 32 32">
<path style="fill: var(--color1, #2d2e2d)" fill="#2d2e2d" d="M 30.261 15.808 c 0 7.925 -6.421 14.347 -14.347 14.347 s -14.347 -6.421 -14.347 -14.347 s 6.421 -14.347 14.347 -14.347 s 14.347 6.421 14.347 14.347 Z" />
<path style="fill: var(--color2, #fff)" fill="#fff" d="M 24.16 14.816 c 0 0.203 -0.192 0.405 -0.405 0.405 h -0.405 c -0.544 0 -0.981 -0.267 -1.099 -0.672 l -2.645 -7.552 c -0.021 -0.011 -0.107 -0.011 -0.128 0 l -0.043 0.117 l -2.613 7.637 c -0.117 0.245 -0.352 0.416 -0.629 0.469 h -0.427 c -0.053 0 -0.171 0 -0.256 -0.064 c -0.171 -0.064 -0.331 -0.224 -0.384 -0.395 h -0.032 l -2.827 -7.787 c -0.021 -0.011 -0.107 -0.011 -0.139 0 l -2.549 7.552 c -0.171 0.405 -0.619 0.672 -1.099 0.672 h -0.405 c -0.203 0 -0.395 -0.181 -0.405 -0.384 c -0.011 -0.085 0.011 -0.16 0.053 -0.224 c 0.064 -0.085 0.181 -0.139 0.309 -0.139 h 0.405 c 0.213 0 0.341 -0.075 0.352 -0.107 v -0.032 l 2.667 -7.584 c 0.128 -0.32 0.437 -0.523 0.8 -0.523 c 0.384 0 0.683 0.171 0.8 0.469 l 0.011 0.075 l 2.741 7.637 c 0.021 0.011 0.117 0.011 0.117 0 l 2.816 -7.755 c 0.117 -0.299 0.405 -0.469 0.8 -0.469 c 0.405 0 0.683 0.181 0.8 0.523 l 2.656 7.584 c 0.021 0.043 0.128 0.139 0.352 0.139 h 0.405 c 0.203 0 0.405 0.192 0.405 0.405 Z" />
<path style="fill: var(--color2, #fff)" fill="#fff" d="M 23.84 16.363 h -0.405 c -0.608 0 -1.109 0.32 -1.248 0.779 l -2.571 7.307 l -2.571 -7.509 l -0.011 -0.021 c -0.139 -0.288 -0.416 -0.48 -0.757 -0.544 h -0.437 c -0.075 0 -0.224 0 -0.341 0.085 c -0.16 0.075 -0.309 0.213 -0.405 0.373 h -0.043 l -2.784 7.648 l -2.453 -7.339 v -0.011 c -0.192 -0.448 -0.693 -0.757 -1.248 -0.757 h -0.405 c -0.277 0 -0.544 0.245 -0.565 0.523 c -0.021 0.107 0 0.235 0.075 0.341 c 0.096 0.128 0.256 0.203 0.437 0.203 h 0.405 c 0.107 0 0.181 0.021 0.213 0.043 l 2.656 7.573 c 0.149 0.373 0.523 0.608 0.949 0.608 c 0.459 0 0.811 -0.213 0.949 -0.576 l 2.667 -7.456 l 2.709 7.52 c 0.139 0.363 0.491 0.576 0.949 0.576 c 0.48 0 0.821 -0.235 0.949 -0.629 l 2.656 -7.563 c 0.011 -0.011 0.085 -0.053 0.213 -0.053 h 0.405 c 0.309 0 0.576 -0.245 0.576 -0.544 c 0 -0.309 -0.267 -0.576 -0.565 -0.576 Z" />
<path style="fill: var(--color2, #fff)" fill="#fff" d="M 8.075 15.36 h 0.405 c 0.555 0 1.056 -0.309 1.248 -0.768 l 2.475 -7.328 l 2.784 7.659 h 0.043 c 0.085 0.16 0.245 0.309 0.416 0.373 c 0.128 0.085 0.267 0.085 0.331 0.085 h 0.459 c 0.331 -0.064 0.608 -0.267 0.747 -0.555 l 2.571 -7.52 l 2.56 7.296 c 0.139 0.469 0.64 0.789 1.248 0.789 h 0.405 c 0.299 0 0.565 -0.267 0.565 -0.565 s -0.267 -0.565 -0.565 -0.565 h -0.405 c -0.128 0 -0.192 -0.043 -0.213 -0.053 l -2.645 -7.563 c -0.139 -0.405 -0.48 -0.629 -0.949 -0.629 c -0.459 0 -0.811 0.213 -0.949 0.576 l -2.731 7.488 l -2.645 -7.371 l -0.011 -0.053 l -0.011 -0.032 c -0.139 -0.363 -0.491 -0.576 -0.949 -0.576 c -0.427 0 -0.8 0.245 -0.949 0.629 l -2.667 7.584 c -0.032 0.011 -0.107 0.032 -0.203 0.032 h -0.405 c -0.181 0 -0.341 0.075 -0.437 0.213 c -0.064 0.096 -0.096 0.213 -0.075 0.331 c 0.011 0.277 0.267 0.523 0.555 0.523 Z" />
</symbol>
<symbol id="icon-menu" viewBox="0 0 24 24">
<path d="M 3 5 h 18 q 0.414 0 0.707 0.293 t 0.293 0.707 t -0.293 0.707 t -0.707 0.293 h -18 q -0.414 0 -0.707 -0.293 t -0.293 -0.707 t 0.293 -0.707 t 0.707 -0.293 Z M 3 17 h 18 q 0.414 0 0.707 0.293 t 0.293 0.707 t -0.293 0.707 t -0.707 0.293 h -18 q -0.414 0 -0.707 -0.293 t -0.293 -0.707 t 0.293 -0.707 t 0.707 -0.293 Z M 3 11 h 18 q 0.414 0 0.707 0.293 t 0.293 0.707 t -0.293 0.707 t -0.707 0.293 h -18 q -0.414 0 -0.707 -0.293 t -0.293 -0.707 t 0.293 -0.707 t 0.707 -0.293 Z" />
</symbol>
<symbol id="icon-bag" viewBox="0 0 24 24">
<path d="M 12 0 q 1.016 0 1.941 0.398 t 1.594 1.066 t 1.066 1.594 t 0.398 1.941 v 1 h 4 v 15 q 0 1.242 -0.879 2.121 t -2.121 0.879 h -12 q -1.242 0 -2.121 -0.879 t -0.879 -2.121 v -15 h 4 v -1 q 0 -1.016 0.398 -1.941 t 1.066 -1.594 t 1.594 -1.066 t 1.941 -0.398 Z M 19 21 v -13 h -14 v 13 q 0 0.414 0.293 0.707 t 0.707 0.293 h 12 q 0.414 0 0.707 -0.293 t 0.293 -0.707 Z M 12 2 q -1.242 0 -2.121 0.879 t -0.879 2.121 v 1 h 6 v -1 q 0 -1.242 -0.879 -2.121 t -2.121 -0.879 Z" />
</symbol>
<symbol id="icon-right-arrow" viewBox="0 0 25 32">
<path d="M 7.583 5.333 c 0.367 0 0.679 0.129 0.938 0.383 l 9.333 9.333 c 0.262 0.262 0.396 0.579 0.396 0.95 s -0.133 0.683 -0.396 0.95 l -9.333 9.333 c -0.258 0.258 -0.571 0.383 -0.938 0.383 s -0.683 -0.129 -0.942 -0.392 s -0.392 -0.575 -0.392 -0.942 c 0 -0.375 0.129 -0.692 0.383 -0.95 l 8.387 -8.383 l -8.387 -8.383 c -0.258 -0.258 -0.383 -0.575 -0.383 -0.95 c 0 -0.383 0.125 -0.7 0.379 -0.954 s 0.571 -0.379 0.954 -0.379 Z" />
</symbol>
<symbol id="icon-left-arrow" viewBox="0 0 25 32">
<path d="M 17.871 5.713 c 0.254 0.254 0.379 0.571 0.379 0.954 c 0 0.375 -0.129 0.692 -0.383 0.95 l -8.387 8.383 l 8.383 8.383 c 0.258 0.258 0.383 0.575 0.383 0.95 c 0 0.367 -0.129 0.683 -0.392 0.942 s -0.571 0.392 -0.938 0.392 s -0.679 -0.129 -0.938 -0.383 l -9.333 -9.333 c -0.263 -0.262 -0.396 -0.579 -0.396 -0.95 s 0.133 -0.683 0.396 -0.95 l 9.333 -9.333 c 0.258 -0.258 0.571 -0.383 0.938 -0.383 c 0.383 0 0.7 0.125 0.954 0.379 Z" />
</symbol>
<symbol id="icon-instagram" viewBox="0 0 32 32">
<path d="M 16 2.881 c 4.275 0 4.781 0.019 6.462 0.094 c 1.563 0.069 2.406 0.331 2.969 0.55 c 0.744 0.288 1.281 0.638 1.837 1.194 c 0.563 0.563 0.906 1.094 1.2 1.838 c 0.219 0.563 0.481 1.412 0.55 2.969 c 0.075 1.688 0.094 2.194 0.094 6.463 s -0.019 4.781 -0.094 6.463 c -0.069 1.563 -0.331 2.406 -0.55 2.969 c -0.288 0.744 -0.637 1.281 -1.194 1.837 c -0.563 0.563 -1.094 0.906 -1.837 1.2 c -0.563 0.219 -1.413 0.481 -2.969 0.55 c -1.688 0.075 -2.194 0.094 -6.463 0.094 s -4.781 -0.019 -6.463 -0.094 c -1.563 -0.069 -2.406 -0.331 -2.969 -0.55 c -0.744 -0.288 -1.281 -0.637 -1.838 -1.194 c -0.563 -0.563 -0.906 -1.094 -1.2 -1.837 c -0.219 -0.563 -0.481 -1.413 -0.55 -2.969 c -0.075 -1.688 -0.094 -2.194 -0.094 -6.463 s 0.019 -4.781 0.094 -6.463 c 0.069 -1.563 0.331 -2.406 0.55 -2.969 c 0.288 -0.744 0.638 -1.281 1.194 -1.838 c 0.563 -0.563 1.094 -0.906 1.838 -1.2 c 0.563 -0.219 1.412 -0.481 2.969 -0.55 c 1.681 -0.075 2.188 -0.094 6.463 -0.094 Z M 16 0 c -4.344 0 -4.887 0.019 -6.594 0.094 c -1.7 0.075 -2.869 0.35 -3.881 0.744 c -1.056 0.412 -1.95 0.956 -2.837 1.85 c -0.894 0.888 -1.438 1.781 -1.85 2.831 c -0.394 1.019 -0.669 2.181 -0.744 3.881 c -0.075 1.713 -0.094 2.256 -0.094 6.6 s 0.019 4.887 0.094 6.594 c 0.075 1.7 0.35 2.869 0.744 3.881 c 0.413 1.056 0.956 1.95 1.85 2.837 c 0.887 0.887 1.781 1.438 2.831 1.844 c 1.019 0.394 2.181 0.669 3.881 0.744 c 1.706 0.075 2.25 0.094 6.594 0.094 s 4.888 -0.019 6.594 -0.094 c 1.7 -0.075 2.869 -0.35 3.881 -0.744 c 1.05 -0.406 1.944 -0.956 2.831 -1.844 s 1.438 -1.781 1.844 -2.831 c 0.394 -1.019 0.669 -2.181 0.744 -3.881 c 0.075 -1.706 0.094 -2.25 0.094 -6.594 s -0.019 -4.887 -0.094 -6.594 c -0.075 -1.7 -0.35 -2.869 -0.744 -3.881 c -0.394 -1.063 -0.938 -1.956 -1.831 -2.844 c -0.887 -0.887 -1.781 -1.438 -2.831 -1.844 c -1.019 -0.394 -2.181 -0.669 -3.881 -0.744 c -1.712 -0.081 -2.256 -0.1 -6.6 -0.1 v 0 Z" />
<path d="M 16 7.781 c -4.537 0 -8.219 3.681 -8.219 8.219 s 3.681 8.219 8.219 8.219 s 8.219 -3.681 8.219 -8.219 c 0 -4.537 -3.681 -8.219 -8.219 -8.219 Z M 16 21.331 c -2.944 0 -5.331 -2.387 -5.331 -5.331 s 2.387 -5.331 5.331 -5.331 c 2.944 0 5.331 2.387 5.331 5.331 s -2.387 5.331 -5.331 5.331 Z" />
<path d="M 26.462 7.456 c 0 1.06 -0.859 1.919 -1.919 1.919 s -1.919 -0.859 -1.919 -1.919 c 0 -1.06 0.859 -1.919 1.919 -1.919 s 1.919 0.859 1.919 1.919 Z" />
</symbol>
<symbol id="icon-play" viewBox="0 0 24 24">
<path d="M 4 21 v -18 l 15 9 Z M 15.109 12 l -9.109 -5.469 v 10.938 Z" />
</symbol>
<symbol id="Heart" viewBox="0 0 35 32">
<path style="fill: var(--color1, #f00)" fill="#f00" d="M 16.262 30.133 c -0.754 -0.844 -2.635 -2.491 -4.181 -3.658 c -4.581 -3.459 -5.204 -3.96 -7.064 -5.673 c -3.429 -3.157 -4.885 -6.329 -4.88 -10.631 c 0.002 -2.1 0.146 -2.909 0.734 -4.146 c 0.998 -2.1 2.467 -3.66 4.346 -4.614 c 1.331 -0.676 1.987 -0.976 4.209 -0.988 c 2.324 -0.013 2.814 0.258 4.181 1.009 c 1.664 0.914 3.377 2.868 3.731 4.256 l 0.219 0.857 l 0.539 -1.181 c 3.048 -6.672 12.778 -6.572 16.164 0.166 c 1.074 2.138 1.192 6.702 0.24 9.273 c -1.243 3.354 -3.576 5.91 -8.971 9.828 c -3.538 2.57 -7.542 6.457 -7.821 7.003 c -0.324 0.634 -0.015 0.099 -1.445 -1.502 Z" />
    </symbol>
<symbol id="icon-snowflake" viewBox="0 0 32 32">
<path class="path1" fill="#fff" d="M 29.5 22.659 l -3.455 -1.997 l 2.916 -1.737 c 0.471 -0.224 0.612 -0.855 0.347 -1.321 c -0.27 -0.475 -0.859 -0.576 -1.302 -0.315 l -3.889 2.276 l -6.183 -3.597 l 6.183 -3.56 l 3.889 2.276 c 0.123 0.087 0.279 0.142 0.452 0.142 c 0.329 0 0.626 -0.155 0.85 -0.452 c 0.261 -0.471 0.123 -1.092 -0.347 -1.321 l -2.916 -1.737 l 3.455 -1.997 c 0.452 -0.261 0.603 -0.841 0.347 -1.321 c -0.247 -0.462 -0.855 -0.617 -1.321 -0.347 l -3.473 2.015 l -0.05 -3.473 c -0.009 -0.539 -0.416 -0.969 -0.955 -0.969 s -0.96 0.466 -0.955 0.969 l 0.037 4.584 l -6.147 3.56 v -7.216 l 3.871 -2.207 c 0.452 -0.256 0.649 -0.85 0.384 -1.321 c -0.27 -0.475 -0.827 -0.617 -1.302 -0.347 l -2.952 1.668 v -3.944 c 0 -0.539 -0.434 -0.969 -0.973 -0.969 s -0.955 0.434 -0.955 0.969 v 3.981 l -3.057 -1.705 c -0.475 -0.265 -1.019 -0.114 -1.284 0.347 c -0.27 0.475 -0.101 1.056 0.366 1.321 l 3.976 2.239 v 7.152 l -6.284 -3.629 l 0.037 -4.483 c 0.05 -0.503 -0.398 -0.969 -0.937 -0.969 h -0.037 c -0.503 0 -0.951 0.434 -0.955 0.969 l -0.037 3.373 l -3.386 -1.947 c -0.471 -0.274 -1.056 -0.11 -1.302 0.343 c -0.256 0.48 -0.123 1.047 0.347 1.321 l 3.418 1.979 l -2.989 1.791 c -0.471 0.224 -0.617 0.855 -0.329 1.321 c 0.183 0.302 0.452 0.452 0.818 0.452 c 0.192 0 0.352 -0.05 0.503 -0.142 l 3.907 -2.308 l 6.27 3.592 l -6.27 3.629 l -3.907 -2.312 c -0.471 -0.274 -1.074 -0.146 -1.321 0.315 c -0.256 0.48 -0.119 1.051 0.329 1.321 l 2.989 1.769 l -3.418 1.997 c -0.471 0.274 -0.622 0.85 -0.347 1.321 c 0.192 0.324 0.452 0.484 0.818 0.484 c 0.087 0 0.26 -0.05 0.484 -0.142 l 3.386 -1.947 l 0.037 3.373 c 0.005 0.539 0.452 0.951 0.955 0.951 h 0.037 c 0.539 0 0.941 -0.448 0.937 -0.987 l -0.037 -4.479 l 6.284 -3.592 v 7.116 l -3.976 2.239 c -0.475 0.265 -0.64 0.85 -0.366 1.321 c 0.192 0.329 0.452 0.489 0.818 0.489 c 0.174 0 0.334 -0.027 0.471 -0.11 l 3.057 -1.732 v 4.045 c 0 0.539 0.416 0.955 0.955 0.955 s 0.973 -0.42 0.973 -0.955 v -3.981 l 2.952 1.668 c 0.137 0.078 0.297 0.11 0.452 0.11 c 0.384 0 0.663 -0.155 0.85 -0.489 c 0.265 -0.466 0.091 -1.051 -0.384 -1.321 l -3.875 -2.162 v -7.221 l 6.147 3.56 l -0.037 4.547 c -0.005 0.539 0.416 0.987 0.955 0.987 s 0.946 -0.416 0.955 -0.951 l 0.05 -3.492 l 3.473 2.034 c 0.133 0.078 0.311 0.105 0.503 0.105 c 0.366 0 0.631 -0.151 0.818 -0.452 c 0.288 -0.466 0.105 -1.06 -0.347 -1.321 Z" />
</symbol>
<symbol id="icon-zoom" viewBox="0 0 33 32">
<path class="path1" d="M 29.03 27.573 l -7.061 -7.173 c 0.448 -0.504 0.841 -1.009 1.121 -1.569 c 2.634 -4.315 1.961 -9.919 -1.569 -13.506 c -2.074 -2.13 -4.876 -3.306 -7.846 -3.306 c -2.97 -0.056 -5.772 1.121 -7.902 3.194 c -4.371 4.315 -4.427 11.32 -0.112 15.692 c 2.13 2.186 5.044 3.306 7.958 3.306 c 1.905 0 3.811 -0.504 5.548 -1.513 c 0.056 -0.056 0.112 -0.056 0.168 -0.112 l 7.285 7.398 c 0.56 0.616 1.625 0.56 2.298 -0.112 s 0.729 -1.681 0.112 -2.298 Z M 6.893 19.671 c -3.643 -3.699 -3.587 -9.695 0.112 -13.338 c 1.849 -1.793 4.203 -2.69 6.613 -2.69 c 2.466 0 4.876 0.953 6.725 2.802 c 3.026 3.082 3.587 7.79 1.345 11.489 c -0.392 0.672 -0.897 1.289 -1.457 1.849 s -1.233 1.065 -1.905 1.457 c -3.699 2.13 -8.406 1.513 -11.433 -1.569 Z" />
<path class="path2" d="M 17.989 12.161 h -3.25 v -3.25 c 0 -0.616 -0.504 -1.121 -1.121 -1.121 s -1.121 0.504 -1.121 1.121 v 3.25 h -3.25 c -0.616 0 -1.121 0.504 -1.121 1.121 s 0.504 1.121 1.121 1.121 h 3.25 v 3.25 c 0 0.616 0.504 1.121 1.121 1.121 s 1.121 -0.504 1.121 -1.121 v -3.25 h 3.25 c 0.616 0 1.121 -0.504 1.121 -1.121 s -0.504 -1.121 -1.121 -1.121 Z" />
</symbol>
<symbol id="icon-ribbon" viewBox="0 0 33 32">
<path class="path1" fill="#000" d="M 19.391 16.869 c 0.504 -0.28 1.009 -0.56 1.401 -0.953 c 0.392 -0.336 0.729 -0.729 1.065 -1.177 s 0.616 -1.009 0.841 -1.625 c 0.168 -0.56 0.28 -1.065 0.336 -1.569 c 0 -0.224 0 -0.448 0 -0.672 c 0 -0.28 0 -0.56 -0.056 -0.841 c -0.056 -0.616 -0.224 -1.177 -0.504 -1.849 c -0.224 -0.504 -0.504 -0.953 -0.785 -1.345 c -0.392 -0.504 -0.897 -0.953 -1.345 -1.345 c -0.392 -0.28 -0.841 -0.56 -1.345 -0.729 c -0.729 -0.336 -1.513 -0.504 -2.298 -0.56 c -0.448 -0.056 -0.785 0 -1.121 0.056 c -0.897 0.112 -1.793 0.392 -2.578 0.841 c -0.336 0.168 -0.616 0.392 -0.953 0.673 c -0.616 0.504 -1.121 1.065 -1.457 1.793 c -0.28 0.448 -0.504 0.953 -0.616 1.457 c -0.168 0.672 -0.28 1.289 -0.28 1.905 c 0 0.504 0.056 1.009 0.168 1.513 s 0.336 1.065 0.56 1.569 c 0.28 0.504 0.616 1.009 1.065 1.457 c 0.392 0.392 0.785 0.729 1.233 1.009 c 0.504 0.336 1.009 0.56 1.513 0.729 c 0.616 0.224 1.233 0.336 1.849 0.336 c 0.112 0 0.224 0 0.28 0 c 0.392 0 0.841 -0.056 1.233 -0.112 c 0.616 -0.056 1.233 -0.224 1.793 -0.56 Z M 16.364 16.981 c -0.056 0 -0.112 0 -0.224 0 c -0.56 0 -1.121 -0.112 -1.681 -0.336 c -0.448 -0.112 -0.897 -0.336 -1.345 -0.616 c -0.392 -0.28 -0.785 -0.56 -1.121 -0.953 c -0.392 -0.392 -0.729 -0.841 -0.953 -1.345 s -0.392 -0.953 -0.504 -1.457 c -0.112 -0.448 -0.168 -0.897 -0.168 -1.401 c 0 -0.56 0.056 -1.121 0.224 -1.737 c 0.112 -0.448 0.336 -0.897 0.56 -1.289 c 0.336 -0.616 0.785 -1.177 1.345 -1.625 c 0.28 -0.224 0.56 -0.448 0.841 -0.616 c 0.729 -0.392 1.457 -0.673 2.298 -0.785 c 0.224 -0.056 0.448 -0.056 0.729 -0.056 c 0.112 0 0.168 0 0.28 0 c 0.729 0.056 1.457 0.168 2.074 0.504 c 0.448 0.168 0.841 0.448 1.233 0.673 c 0.448 0.336 0.841 0.729 1.233 1.233 c 0.28 0.336 0.504 0.729 0.729 1.233 c 0.224 0.56 0.392 1.121 0.448 1.625 c 0.056 0.28 0.056 0.504 0.056 0.785 c 0 0.224 0 0.392 0 0.56 v 0 c -0.056 0.448 -0.112 0.897 -0.28 1.401 c -0.224 0.56 -0.448 1.009 -0.785 1.457 c -0.28 0.392 -0.616 0.729 -0.953 1.065 s -0.785 0.616 -1.233 0.841 c -0.56 0.28 -1.065 0.448 -1.625 0.56 c -0.448 0.224 -0.841 0.28 -1.177 0.28 Z" />
<path class="path2" fill="#fff" d="M 18.774 19.559 c -0.28 0.056 -0.56 0.056 -0.841 0 c 0.953 2.802 2.634 6.557 3.643 8.687 l 0.28 -1.457 c 0.056 -0.224 0.224 -0.448 0.392 -0.56 c 0.224 -0.112 0.448 -0.168 0.672 -0.056 c 0.056 0 0.112 0.056 0.224 0.056 c 0.224 0.056 0.616 0.224 1.065 0.336 c -1.681 -2.298 -2.914 -5.436 -3.755 -7.902 c -0.392 0.504 -1.009 0.841 -1.681 0.897 Z" />
<path class="path3" fill="#000" d="M 25.387 27.012 c -2.074 -2.354 -3.531 -6.221 -4.371 -9.023 c 0 0 0 0 0 -0.056 s 0.056 -0.056 0.056 -0.112 c 0.112 0 0.224 0 0.336 0 h 0.112 c 0.953 -0.056 1.681 -0.56 2.074 -1.569 c 0.056 -0.224 0.224 -0.785 0.28 -1.233 c 0.392 -0.112 0.785 -0.336 1.065 -0.729 c 0.448 -0.56 0.672 -1.401 0.56 -2.186 v 0 c -0.056 -0.504 -0.28 -1.009 -0.616 -1.401 c 0.448 -0.56 0.616 -1.233 0.504 -1.961 c -0.112 -1.009 -0.785 -1.849 -1.681 -2.186 c 0 -0.224 0 -0.448 0 -0.673 c -0.168 -1.513 -1.569 -2.522 -3.082 -2.354 h -0.056 c 0 0 0 0 0 0 c -0.504 -1.065 -1.625 -1.737 -2.858 -1.569 c -0.56 0.056 -1.121 0.336 -1.513 0.729 c -0.56 -0.56 -1.401 -0.841 -2.242 -0.729 c -1.177 0.168 -2.13 1.065 -2.298 2.186 c -0.112 0 -0.168 0 -0.28 0 c -1.513 0 -2.746 1.233 -2.746 2.746 c 0 0.224 0 0.392 0.056 0.616 c -0.841 0.56 -1.401 1.513 -1.401 2.466 c 0 0.729 0.28 1.401 0.785 1.905 c -0.28 0.448 -0.392 0.953 -0.392 1.457 c 0 1.233 0.785 2.242 1.905 2.578 c 0.112 1.289 1.065 2.354 2.41 2.522 h 0.056 c 0.224 0 0.392 0 0.616 0 c -0.841 2.802 -2.298 6.557 -4.371 8.911 c -0.112 0.112 -0.112 0.28 0 0.392 c 0.056 0.112 0.224 0.168 0.336 0.112 c 0.897 -0.28 1.681 -0.504 2.074 -0.672 c 0.112 -0.056 0.168 -0.056 0.224 -0.056 c 0 0 0 0 0.056 0 s 0.112 0 0.168 0 c 0.056 0 0.056 0.056 0.112 0.112 l 0.448 2.41 c 0 0.112 0.112 0.224 0.28 0.28 c 0 0 0 0 0.056 0 c 0.112 0 0.224 -0.056 0.28 -0.168 c 0.953 -1.961 3.25 -6.893 4.259 -10.2 c 0 0 0.336 -0.28 0.448 -0.392 c 0.056 0.056 0.112 0.056 0.224 0.112 c 0 0.056 0 0.056 0.056 0.112 c 1.009 3.306 3.306 8.126 4.259 10.032 c 0.056 0.112 0.168 0.168 0.28 0.168 c 0 0 0 0 0.056 0 c 0.112 0 0.224 -0.112 0.28 -0.28 l 0.448 -2.41 c 0 -0.056 0.056 -0.112 0.112 -0.112 s 0.112 -0.056 0.168 0 c 0 0 0 0 0.056 0 s 0.112 0.056 0.224 0.056 c 0.392 0.112 1.177 0.392 2.074 0.672 c 0.112 0.056 0.28 0 0.336 -0.112 c -0.112 -0.112 -0.112 -0.28 -0.224 -0.392 Z M 23.201 26.284 c -0.112 -0.056 -0.168 -0.056 -0.224 -0.056 c -0.224 -0.056 -0.504 -0.056 -0.672 0.056 s -0.336 0.336 -0.392 0.56 l -0.28 1.457 c -1.009 -2.13 -2.746 -5.884 -3.643 -8.687 c 0.28 0.056 0.56 0.056 0.841 0 c 0.672 -0.112 1.289 -0.392 1.793 -0.841 c 0.785 2.466 2.017 5.604 3.755 7.902 c -0.56 -0.168 -0.953 -0.336 -1.177 -0.392 Z M 11.377 26.62 c -0.112 -0.056 -0.28 -0.112 -0.392 -0.112 s -0.168 0 -0.28 0.056 c -0.056 0 -0.112 0.056 -0.224 0.056 c -0.224 0.056 -0.616 0.224 -1.065 0.336 c 1.681 -2.298 2.914 -5.436 3.755 -7.902 c 0.504 0.448 1.121 0.785 1.793 0.841 c 0.28 0.056 0.56 0.056 0.785 0 c -0.953 2.802 -2.634 6.557 -3.643 8.686 l -0.336 -1.457 c -0.056 -0.224 -0.168 -0.392 -0.392 -0.504 Z M 16.981 18.326 l -0.28 0.224 l -0.056 0.056 c -0.112 0.168 -0.28 0.28 -0.504 0.392 c -0.336 0.168 -0.672 0.224 -1.009 0.224 c -0.841 0 -1.625 -0.504 -1.905 -1.289 l -0.112 -0.28 l -0.28 0.112 c -0.224 0.056 -0.504 0.112 -0.785 0.056 h -0.056 c -1.065 -0.112 -1.849 -1.009 -1.849 -2.074 v -0.336 l -0.28 -0.056 c -0.953 -0.168 -1.681 -1.065 -1.681 -2.018 c 0 -0.448 0.168 -0.897 0.448 -1.289 l 0.168 -0.224 l -0.224 -0.224 c -0.504 -0.392 -0.729 -0.953 -0.729 -1.625 c 0 -0.841 0.504 -1.625 1.289 -1.905 l 0.28 -0.112 l -0.112 -0.28 c -0.056 -0.224 -0.112 -0.504 -0.112 -0.673 c 0 -1.121 0.953 -2.074 2.074 -2.074 c 0.168 0 0.336 0 0.448 0.056 l 0.392 0.112 v -0.392 c 0.056 -1.009 0.785 -1.849 1.793 -1.961 c 0.729 -0.112 1.457 0.168 1.905 0.785 l 0.28 0.336 l 0.224 -0.336 c 0.336 -0.392 0.785 -0.672 1.345 -0.729 c 1.009 -0.112 1.961 0.448 2.242 1.401 l 0.112 0.28 l 0.28 -0.056 c 0.056 0 0.168 -0.056 0.224 -0.056 h 0.056 c 1.121 -0.168 2.186 0.673 2.354 1.793 c 0 0.28 0 0.504 -0.056 0.729 l -0.056 0.28 l 0.28 0.056 c 0.841 0.224 1.401 0.897 1.513 1.737 c 0.056 0.616 -0.112 1.233 -0.56 1.681 l -0.224 0.224 l 0.224 0.224 c 0.336 0.336 0.56 0.785 0.616 1.233 c 0.056 0.616 -0.112 1.233 -0.448 1.681 c -0.168 0.224 -0.448 0.504 -0.897 0.504 l -0.448 0.056 l 0.336 0.392 c -0.056 0.448 -0.224 2.186 -1.737 2.298 h -0.112 c -0.112 0 -0.168 0 -0.28 0 c -0.056 0 -0.112 0 -0.168 0 l -0.28 -0.056 l -0.056 0.28 c -0.112 0.504 -0.448 0.897 -0.841 1.177 c -0.28 0.168 -0.616 0.28 -1.009 0.336 c -0.112 0 -0.28 0 -0.392 0 c -0.392 -0.056 -0.785 -0.224 -1.121 -0.448 l -0.224 -0.224 Z" />
<path class="path4" fill="#fff" d="M 15.748 19.895 c -0.28 0.056 -0.56 0.056 -0.785 0 c -0.672 -0.112 -1.289 -0.392 -1.793 -0.841 c -0.785 2.466 -2.018 5.604 -3.755 7.902 c 0.448 -0.168 0.841 -0.28 1.065 -0.336 c 0.112 -0.056 0.168 -0.056 0.224 -0.056 c 0.112 -0.056 0.168 -0.056 0.28 -0.056 c 0.168 0 0.28 0.056 0.392 0.112 c 0.168 0.112 0.336 0.336 0.392 0.56 l 0.28 1.457 c 1.065 -2.186 2.746 -5.94 3.699 -8.743 Z" />
</symbol>
<symbol id="icon-airplane" viewBox="0 0 33 32">
<path class="path1" d="M 31.103 20.343 l -1.233 -1.569 l 0.56 -0.897 c 0.168 -0.28 0.112 -0.616 -0.168 -0.841 c -0.28 -0.168 -0.616 -0.112 -0.841 0.168 l -0.336 0.504 l -3.138 -4.091 l 0.56 -0.897 c 0.168 -0.28 0.112 -0.616 -0.168 -0.841 c -0.28 -0.168 -0.616 -0.112 -0.785 0.168 l -0.336 0.504 l -2.242 -2.914 l 2.186 -3.419 c 0.504 -0.785 0.672 -1.681 0.56 -2.522 c -0.112 -0.897 -0.616 -1.625 -1.289 -2.074 c -1.401 -0.897 -3.419 -0.336 -4.483 1.289 l -2.186 3.419 l -3.475 -0.785 l 0.28 -0.28 c 0.168 -0.224 0.112 -0.616 -0.168 -0.785 s -0.616 -0.112 -0.841 0.168 l -0.56 0.841 l -5.156 -1.121 l 0.336 -0.448 c 0.168 -0.28 0.112 -0.616 -0.168 -0.841 c -0.28 -0.168 -0.616 -0.112 -0.841 0.168 l -0.504 0.785 l -1.905 -0.392 c -0.112 0 -0.224 0 -0.336 0.056 l -2.97 1.569 c -0.168 0.056 -0.224 0.224 -0.224 0.392 s 0.056 0.336 0.224 0.392 l 11.881 7.51 l -3.979 6.277 l -5.268 -0.504 c -0.168 0 -0.336 0.056 -0.448 0.224 l -1.401 2.242 c -0.056 0.112 -0.112 0.224 -0.056 0.392 c 0.056 0.112 0.112 0.224 0.28 0.28 l 7.005 3.026 l 5.716 5.044 c 0.056 0.056 0.168 0.112 0.28 0.112 c 0 0 0.056 0 0.056 0 c 0.112 0 0.224 -0.112 0.336 -0.224 l 1.401 -2.242 c 0.112 -0.168 0.112 -0.336 0 -0.504 l -2.746 -4.539 l 3.979 -6.277 l 11.825 7.566 c 0.056 0.056 0.168 0.056 0.224 0.056 s 0.168 0 0.224 -0.056 s 0.224 -0.224 0.224 -0.392 l 0.168 -3.363 c 0 -0.112 0 -0.224 -0.056 -0.336 Z M 20.68 3.587 c 0.504 -0.841 1.401 -1.289 2.186 -1.289 c 0.336 0 0.729 0.112 1.009 0.28 c 0.448 0.28 0.785 0.785 0.897 1.401 s -0.056 1.345 -0.448 1.905 l -11.208 17.653 c -0.392 0.616 -0.953 1.009 -1.569 1.233 c -0.616 0.168 -1.177 0.112 -1.681 -0.168 c -0.448 -0.28 -0.785 -0.785 -0.897 -1.401 c 0 -0.672 0.168 -1.345 0.56 -1.961 l 0.448 -0.729 c 0 0 0 0 0 0 l 10.704 -16.925 Z M 13.786 12.778 l -11.208 -7.061 l 2.13 -1.121 l 12.497 2.746 l -0.616 1.009 l -2.802 4.427 Z M 3.306 21.744 l 0.953 -1.513 l 4.539 0.448 l -0.056 0.112 c -0.504 0.785 -0.672 1.681 -0.56 2.522 c 0.056 0.224 0.056 0.392 0.168 0.56 l -5.044 -2.13 Z M 13.954 23.986 l 2.354 3.923 l -0.953 1.513 l -4.091 -3.643 c 0 0 0.056 0 0.056 0 c 0.168 0 0.336 -0.056 0.56 -0.112 c 0.841 -0.28 1.569 -0.841 2.074 -1.569 v -0.112 Z M 30.151 23.201 l -11.152 -7.117 l 3.419 -5.436 l 7.846 10.144 l -0.112 2.41 Z" />
</symbol>
<symbol id="icon-days" viewBox="0 0 33 32">
<path class="path1" fill="#010101" d="M 17.485 1.905 c -6.501 -0.28 -12.105 3.867 -14.011 9.695 l -1.233 -2.13 c -0.056 -0.168 -0.224 -0.224 -0.336 -0.28 c -0.168 -0.056 -0.336 0 -0.448 0.056 s -0.224 0.224 -0.28 0.336 c -0.056 0.168 0 0.336 0.056 0.448 l 1.849 3.306 c 0.056 0.168 0.224 0.224 0.336 0.28 c 0.056 0 0.112 0 0.168 0 c 0.112 0 0.224 0 0.28 -0.056 l 3.306 -1.849 c 0.112 -0.056 0.224 -0.224 0.28 -0.336 c 0.056 -0.168 0 -0.336 -0.056 -0.448 c -0.056 -0.168 -0.224 -0.224 -0.336 -0.28 c -0.168 -0.056 -0.336 0 -0.448 0.056 l -2.018 1.121 c 1.737 -4.988 6.445 -8.63 11.993 -8.743 c 6.949 -0.112 12.89 5.492 13.17 12.441 c 0.28 7.398 -5.604 13.45 -12.946 13.45 c -5.436 0 -10.088 -3.363 -11.993 -8.126 c -0.392 -1.121 -1.401 -0.672 -1.233 0 c 1.961 5.436 7.173 9.303 13.226 9.303 c 7.958 0 14.403 -6.613 14.067 -14.627 c -0.224 -7.285 -6.165 -13.282 -13.394 -13.618 Z" />
<path class="path2" fill="#000" d="M 13.058 16.028 c 0.112 0.28 0.392 0.392 0.785 0.392 c 0.224 0 0.392 -0.056 0.504 -0.112 s 0.224 -0.168 0.28 -0.28 c 0.056 -0.112 0.112 -0.28 0.112 -0.448 s 0.056 -0.336 0.056 -0.56 c 0 -0.168 0 -0.392 -0.056 -0.56 s -0.056 -0.336 -0.168 -0.448 c -0.056 -0.112 -0.168 -0.224 -0.336 -0.336 c -0.168 -0.056 -0.336 -0.112 -0.56 -0.112 h -0.56 v -1.177 h 0.56 c 0.168 0 0.336 -0.056 0.448 -0.112 s 0.224 -0.168 0.28 -0.28 c 0.056 -0.112 0.112 -0.28 0.168 -0.448 s 0.056 -0.336 0.056 -0.504 c 0 -0.392 -0.056 -0.729 -0.224 -0.897 c -0.112 -0.168 -0.336 -0.28 -0.616 -0.28 c -0.168 0 -0.336 0.056 -0.448 0.112 s -0.224 0.168 -0.28 0.28 c -0.056 0.112 -0.112 0.28 -0.112 0.448 s -0.056 0.336 -0.056 0.56 h -1.625 c 0 -0.841 0.224 -1.513 0.672 -1.905 c 0.448 -0.448 1.065 -0.616 1.905 -0.616 c 0.785 0 1.401 0.168 1.849 0.56 c 0.448 0.336 0.673 0.897 0.673 1.681 c 0 0.504 -0.112 0.953 -0.336 1.289 s -0.56 0.56 -0.953 0.616 v 0 c 0.56 0.112 0.953 0.336 1.177 0.672 s 0.336 0.841 0.336 1.345 c 0 0.28 -0.056 0.616 -0.112 0.897 c -0.056 0.336 -0.224 0.616 -0.448 0.841 c -0.224 0.28 -0.504 0.448 -0.897 0.616 s -0.841 0.224 -1.457 0.224 c -0.841 0 -1.457 -0.224 -1.905 -0.672 c -0.392 -0.448 -0.616 -1.121 -0.616 -1.961 v -0.056 h 1.681 c 0.056 0.56 0.112 0.953 0.224 1.233 Z" />
<path class="path3" fill="#000" d="M 17.093 11.601 c 0.056 -0.56 0.168 -1.065 0.336 -1.457 c 0.168 -0.448 0.448 -0.785 0.841 -1.009 c 0.336 -0.28 0.841 -0.392 1.513 -0.392 c 0.504 0 0.953 0.056 1.289 0.224 s 0.616 0.392 0.841 0.729 s 0.336 0.785 0.448 1.289 c 0.112 0.56 0.112 1.177 0.112 1.961 c 0 0.616 0 1.177 -0.056 1.737 s -0.168 1.065 -0.336 1.457 c -0.168 0.448 -0.448 0.785 -0.841 1.009 c -0.336 0.224 -0.841 0.392 -1.513 0.392 c -0.504 0 -0.953 -0.056 -1.289 -0.224 c -0.336 -0.112 -0.616 -0.392 -0.841 -0.729 s -0.336 -0.785 -0.448 -1.289 c -0.112 -0.56 -0.112 -1.177 -0.112 -1.961 c 0 -0.56 0 -1.177 0.056 -1.737 Z M 18.83 15.075 c 0.056 0.336 0.056 0.616 0.168 0.841 c 0.056 0.224 0.168 0.336 0.28 0.392 s 0.28 0.112 0.448 0.112 c 0.168 0 0.336 -0.056 0.504 -0.168 s 0.224 -0.28 0.28 -0.504 c 0.056 -0.224 0.112 -0.504 0.168 -0.897 s 0.056 -0.841 0.056 -1.401 v -0.953 c 0 -0.56 0 -1.009 -0.056 -1.345 s -0.056 -0.616 -0.168 -0.841 c -0.056 -0.224 -0.168 -0.336 -0.28 -0.392 s -0.28 -0.112 -0.448 -0.112 c -0.168 0 -0.336 0.056 -0.504 0.168 c -0.112 0.112 -0.224 0.28 -0.28 0.504 s -0.112 0.504 -0.168 0.897 c -0.056 0.392 -0.056 0.841 -0.056 1.401 v 0.953 c 0 0.56 0 1.009 0.056 1.345 Z" />
<path class="path4" fill="#000" d="M 12.553 18.998 c 0.28 0 0.504 0.056 0.672 0.112 c 0.168 0.112 0.28 0.224 0.392 0.392 s 0.168 0.392 0.168 0.616 c 0.056 0.224 0.056 0.504 0.056 0.785 c 0 0.336 0 0.672 -0.056 0.897 c -0.056 0.28 -0.112 0.448 -0.224 0.616 s -0.224 0.28 -0.448 0.392 c -0.168 0.056 -0.392 0.112 -0.672 0.112 h -1.289 v -3.979 h 1.401 Z M 12.385 22.417 c 0.168 0 0.28 0 0.336 -0.056 c 0.112 -0.056 0.168 -0.112 0.224 -0.224 s 0.056 -0.28 0.112 -0.448 c 0 -0.168 0 -0.392 0 -0.672 c 0 -0.224 0 -0.448 0 -0.616 s -0.056 -0.336 -0.112 -0.448 c -0.056 -0.112 -0.112 -0.224 -0.224 -0.28 s -0.168 -0.056 -0.336 -0.056 h -0.336 v 2.802 h 0.336 Z" />
<path class="path5" fill="#000" d="M 16.196 18.998 l 1.065 3.979 h -0.841 l -0.168 -0.841 h -1.065 l -0.168 0.841 h -0.841 l 1.065 -3.979 h 0.953 Z M 16.084 21.52 l -0.392 -1.793 l -0.392 1.793 h 0.785 Z" />
<path class="path6" fill="#000" d="M 18.382 20.567 v 0 l 0.56 -1.569 h 0.897 l -1.009 2.41 v 1.569 h -0.785 v -1.569 l -1.065 -2.41 h 0.897 l 0.504 1.569 Z" />
<path class="path7" fill="#000" d="M 20.792 21.856 c 0 0.112 0 0.168 0 0.28 c 0 0.056 0.056 0.168 0.056 0.168 c 0.056 0.056 0.112 0.112 0.168 0.112 c 0.056 0.056 0.168 0.056 0.28 0.056 s 0.224 -0.056 0.336 -0.112 s 0.168 -0.224 0.168 -0.392 c 0 -0.112 0 -0.168 -0.056 -0.224 c 0 -0.056 -0.056 -0.112 -0.112 -0.168 s -0.112 -0.112 -0.224 -0.168 c -0.112 -0.056 -0.224 -0.112 -0.336 -0.112 c -0.168 -0.056 -0.336 -0.112 -0.448 -0.224 c -0.112 -0.056 -0.224 -0.168 -0.336 -0.224 c -0.112 -0.112 -0.168 -0.224 -0.168 -0.336 c -0.056 -0.112 -0.056 -0.28 -0.056 -0.448 c 0 -0.392 0.112 -0.672 0.336 -0.897 s 0.504 -0.28 0.897 -0.28 c 0.168 0 0.336 0 0.504 0.056 s 0.28 0.112 0.392 0.168 c 0.112 0.112 0.168 0.224 0.28 0.336 c 0.056 0.112 0.112 0.28 0.112 0.504 v 0.112 h -0.785 c 0 -0.168 -0.056 -0.336 -0.112 -0.448 s -0.168 -0.168 -0.336 -0.168 c -0.112 0 -0.168 0 -0.224 0.056 c -0.056 0 -0.112 0.056 -0.168 0.112 s -0.056 0.112 -0.056 0.168 s 0 0.112 0 0.168 c 0 0.112 0 0.224 0.056 0.336 s 0.168 0.168 0.336 0.224 l 0.616 0.28 c 0.168 0.056 0.28 0.112 0.392 0.224 c 0.112 0.056 0.168 0.168 0.224 0.224 s 0.112 0.168 0.112 0.28 c 0 0.112 0.056 0.224 0.056 0.336 c 0 0.448 -0.112 0.729 -0.392 0.897 c -0.224 0.168 -0.56 0.28 -1.009 0.28 s -0.785 -0.112 -0.953 -0.28 c -0.224 -0.224 -0.28 -0.504 -0.28 -0.841 v -0.168 h 0.785 v 0.112 Z" />
</symbol>
<symbol id="icon-truck" viewBox="0 0 33 32">
<path class="path1" d="M 11.377 5.94 v 16.084 h 12.666 c 0.168 1.345 1.345 2.41 2.746 2.41 s 2.578 -1.065 2.746 -2.41 h 1.849 v -16.084 h -20.007 Z M 28.974 22.081 c -0.168 1.065 -1.065 1.849 -2.186 1.849 s -2.017 -0.785 -2.186 -1.849 c 0 -0.112 0 -0.224 0 -0.336 c 0 -0.056 0 -0.112 0 -0.224 c 0.112 -1.121 1.065 -2.017 2.186 -2.017 s 2.13 0.897 2.186 2.017 c 0 0.056 0 0.112 0 0.224 c 0.056 0.056 0.056 0.224 0 0.336 Z M 30.879 21.52 h -1.289 c -0.112 -1.457 -1.289 -2.578 -2.746 -2.578 s -2.69 1.121 -2.746 2.578 h -12.161 v -15.019 h 18.942 v 15.019 Z" />
<path class="path2" d="M 0.841 17.037 v 4.988 h 2.074 c 0.112 1.457 1.289 2.578 2.746 2.578 s 2.69 -1.121 2.802 -2.578 h 2.074 v -9.751 h -4.932 l -4.764 4.764 Z M 7.958 21.8 c 0 0.056 0 0.112 0 0.224 c -0.112 1.121 -1.065 2.018 -2.242 2.018 s -2.13 -0.897 -2.186 -2.017 c 0 -0.056 0 -0.112 0 -0.168 c 0 0 0 -0.28 0.056 -0.392 c 0.168 -1.065 1.065 -1.849 2.186 -1.849 s 2.018 0.785 2.186 1.849 c -0.056 0.056 0 0.168 0 0.336 v 0 Z M 10.032 12.834 v 8.574 h -1.569 c -0.168 -1.401 -1.345 -2.41 -2.746 -2.41 s -2.578 1.065 -2.746 2.41 h -1.569 v -4.203 l 4.427 -4.427 h 4.203 Z" />
</symbol>
<symbol id="icon-monowear-icon" viewBox="0 0 32 32">
<path style="fill: var(--color1, #2d2e2d)" fill="#2d2e2d" d="M 31.448 15.793 c 0 8.563 -6.938 15.5 -15.5 15.5 s -15.5 -6.938 -15.5 -15.5 s 6.938 -15.5 15.5 -15.5 s 15.5 6.938 15.5 15.5 Z" />
<path style="fill: var(--color2, #fff)" fill="#fff" d="M 24.948 17.003 c 0 0.23 -0.219 0.415 -0.449 0.415 h -0.438 c -0.219 0 -0.357 0.081 -0.392 0.161 l -2.87 8.182 c -0.115 0.357 -0.426 0.565 -0.864 0.565 c -0.415 0 -0.738 -0.184 -0.864 -0.507 l -3.031 -8.401 c 0 0.012 -0.023 0 -0.058 0 s -0.058 0.012 -0.069 0.012 l -2.973 8.332 c -0.127 0.323 -0.438 0.507 -0.864 0.507 c -0.392 0 -0.726 -0.219 -0.864 -0.553 l -2.881 -8.228 c -0.011 -0.023 -0.15 -0.104 -0.38 -0.104 h -0.438 c -0.138 0 -0.265 -0.058 -0.334 -0.15 c -0.046 -0.069 -0.069 -0.161 -0.046 -0.242 c 0.011 -0.219 0.219 -0.415 0.438 -0.415 h 0.438 c 0.53 0 1.003 0.288 1.187 0.715 l 2.754 8.171 c 0.023 0.012 0.115 0.012 0.15 0 l 3.054 -8.401 h 0.035 c 0.069 -0.184 0.242 -0.357 0.415 -0.426 c 0.081 -0.069 0.207 -0.069 0.277 -0.069 h 0.438 c 0.323 0.058 0.565 0.242 0.691 0.496 l 2.87 8.39 c 0.023 0.012 0.115 0.012 0.138 0 l 2.87 -8.159 c 0.127 -0.426 0.599 -0.726 1.187 -0.726 h 0.438 c 0.219 0 0.438 0.207 0.438 0.438 Z" />
<path style="fill: var(--color2, #fff)" fill="#fff" d="M 24.856 14.721 c 0 0.219 -0.207 0.438 -0.438 0.438 h -0.438 c -0.588 0 -1.06 -0.288 -1.187 -0.726 l -2.858 -8.159 c -0.023 -0.011 -0.115 -0.011 -0.138 0 l -0.046 0.127 l -2.823 8.251 c -0.127 0.265 -0.38 0.449 -0.68 0.507 h -0.461 c -0.058 0 -0.184 0 -0.277 -0.069 c -0.184 -0.069 -0.357 -0.242 -0.415 -0.426 h -0.035 l -3.054 -8.413 c -0.023 -0.011 -0.115 -0.011 -0.15 0 l -2.754 8.159 c -0.184 0.438 -0.668 0.726 -1.187 0.726 h -0.438 c -0.219 0 -0.426 -0.196 -0.438 -0.415 c -0.011 -0.092 0.011 -0.173 0.058 -0.242 c 0.069 -0.092 0.196 -0.15 0.334 -0.15 h 0.438 c 0.231 0 0.369 -0.081 0.38 -0.115 v -0.035 l 2.881 -8.194 c 0.138 -0.346 0.473 -0.565 0.864 -0.565 c 0.415 0 0.738 0.184 0.864 0.507 l 0.011 0.081 l 2.962 8.251 c 0.023 0.011 0.127 0.011 0.127 0 l 3.042 -8.378 c 0.127 -0.323 0.438 -0.507 0.864 -0.507 c 0.438 0 0.738 0.196 0.864 0.565 l 2.87 8.194 c 0.023 0.046 0.138 0.15 0.38 0.15 h 0.438 c 0.219 0 0.438 0.207 0.438 0.438 Z" />
</symbol>
<symbol id="icon-instagramNEW" viewBox="0 0 32 32">
<path class="path1" d="M 16 3.299 c 4.139 0 4.625 0.018 6.261 0.092 c 1.513 0.068 2.331 0.32 2.879 0.535 c 0.726 0.283 1.242 0.615 1.784 1.156 s 0.88 1.058 1.156 1.784 c 0.209 0.547 0.467 1.365 0.535 2.879 c 0.074 1.636 0.092 2.122 0.092 6.261 s -0.018 4.625 -0.092 6.262 c -0.068 1.513 -0.32 2.331 -0.535 2.879 c -0.283 0.726 -0.615 1.242 -1.156 1.784 s -1.058 0.88 -1.784 1.156 c -0.547 0.209 -1.365 0.467 -2.879 0.535 c -1.636 0.074 -2.122 0.092 -6.261 0.092 s -4.625 -0.018 -6.261 -0.092 c -1.513 -0.068 -2.331 -0.32 -2.879 -0.535 c -0.726 -0.283 -1.242 -0.615 -1.784 -1.156 s -0.88 -1.058 -1.156 -1.784 c -0.209 -0.547 -0.467 -1.365 -0.535 -2.879 c -0.074 -1.636 -0.092 -2.122 -0.092 -6.261 s 0.018 -4.625 0.092 -6.261 c 0.068 -1.513 0.32 -2.331 0.535 -2.879 c 0.283 -0.726 0.615 -1.242 1.156 -1.784 s 1.058 -0.88 1.784 -1.156 c 0.547 -0.209 1.365 -0.467 2.879 -0.535 c 1.636 -0.08 2.122 -0.092 6.261 -0.092 Z M 16 0.506 c -4.207 0 -4.736 0.018 -6.391 0.092 c -1.648 0.074 -2.774 0.338 -3.758 0.72 c -1.021 0.394 -1.882 0.929 -2.743 1.79 s -1.39 1.728 -1.79 2.743 c -0.381 0.984 -0.646 2.11 -0.72 3.764 c -0.074 1.648 -0.092 2.177 -0.092 6.384 s 0.018 4.736 0.092 6.391 c 0.074 1.648 0.338 2.774 0.72 3.764 c 0.394 1.021 0.929 1.882 1.79 2.743 s 1.728 1.39 2.743 1.79 c 0.984 0.381 2.11 0.646 3.764 0.72 s 2.177 0.092 6.391 0.092 s 4.736 -0.018 6.391 -0.092 c 1.648 -0.074 2.774 -0.338 3.764 -0.72 c 1.021 -0.394 1.882 -0.929 2.743 -1.79 s 1.39 -1.728 1.79 -2.743 c 0.381 -0.984 0.646 -2.11 0.72 -3.764 s 0.092 -2.177 0.092 -6.391 s -0.018 -4.736 -0.092 -6.391 c -0.074 -1.648 -0.338 -2.774 -0.72 -3.764 c -0.394 -1.021 -0.929 -1.882 -1.79 -2.743 s -1.728 -1.39 -2.743 -1.79 c -0.984 -0.381 -2.11 -0.646 -3.764 -0.72 c -1.661 -0.068 -2.19 -0.086 -6.397 -0.086 v 0 Z" />
<path class="path2" d="M 16 8.041 c -4.392 0 -7.959 3.562 -7.959 7.959 s 3.567 7.959 7.959 7.959 s 7.959 -3.567 7.959 -7.959 s -3.567 -7.959 -7.959 -7.959 Z M 16 21.167 c -2.854 0 -5.167 -2.313 -5.167 -5.167 s 2.313 -5.167 5.167 -5.167 s 5.167 2.313 5.167 5.167 s -2.313 5.167 -5.167 5.167 Z" />
<path class="path3" d="M 26.13 7.727 c 0 1.026 -0.832 1.858 -1.858 1.858 s -1.858 -0.832 -1.858 -1.858 c 0 -1.026 0.832 -1.858 1.858 -1.858 s 1.858 0.832 1.858 1.858 Z" />
</symbol>
<symbol id="icon-techradar-logo" viewBox="0 0 204 32">
<path class="path1" d="M 12.862 25.02 c -1.012 -0.511 -0.969 -1.776 -0.996 -2.745 c 0.01 -3.36 0.004 -6.717 0.01 -10.073 c 1.635 -0.004 3.268 -0.004 4.905 -0.004 c 0.01 -1.719 0 -3.437 0.004 -5.158 c -1.637 0 -3.274 0 -4.913 -0.004 c 0.004 -2.344 -0.006 -4.689 0.004 -7.035 c -2.62 -0.006 -5.243 -0.006 -7.866 0 c 0.006 2.342 0 4.687 0.006 7.029 c -1.34 0.012 -2.678 0.01 -4.017 0.012 c 0 1.716 0 3.435 0.002 5.153 c 1.342 0 2.682 -0.008 4.025 0.016 c -0.016 4.123 -0.022 8.242 -0.004 12.366 c 0.092 2.185 0.629 4.803 2.783 5.876 c 3.121 1.423 6.664 0.857 9.975 0.715 c 0.004 -1.965 0.004 -3.932 0 -5.893 c -1.297 0.006 -2.702 0.334 -3.92 -0.257 Z" />
<path class="path2" d="M 83.091 6.373 c -2.928 -0.016 -5.97 1.374 -7.469 3.973 c 0.055 -3.447 0.01 -6.896 0.026 -10.342 c -2.623 -0.004 -5.243 -0.006 -7.864 0 c 0.033 6.992 -0.028 13.98 -0.061 20.972 c 0 0.309 -0.114 0.572 -0.346 0.784 c -2.429 -0.318 -4.897 -0.063 -7.342 -0.14 c -0.275 1.226 -0.711 2.541 -1.792 3.301 c -1.653 1.108 -4.135 1.083 -5.583 -0.371 c -1.395 -1.34 -1.771 -3.382 -1.788 -5.239 c 0.049 -1.741 0.204 -3.616 1.234 -5.082 c 1.507 -2.114 5.005 -2.411 6.782 -0.489 c 0.57 0.576 0.753 1.38 0.939 2.142 c 2.568 0 5.135 0.012 7.707 -0.006 c -0.208 -1.942 -0.845 -3.871 -2.093 -5.4 c -1.82 -2.325 -4.706 -3.567 -7.57 -3.977 c -2.476 -0.269 -5.06 -0.183 -7.401 0.753 c -2.223 0.855 -4.156 2.439 -5.43 4.455 c -1.928 3.007 -2.411 6.766 -1.879 10.25 c 0.576 3.602 2.94 6.854 6.218 8.464 c 5.105 2.464 11.826 1.688 15.829 -2.478 c 0.183 -0.354 0.354 -0.713 0.625 -1.002 c 1.13 -1.183 1.142 -2.94 1.908 -4.321 c 0.092 2.828 0.024 5.656 0.043 8.487 c 2.62 0.002 5.243 0.002 7.864 0.002 c 0 -4.152 -0.002 -8.301 0 -12.449 c 0.01 -1.492 0.193 -3.101 1.157 -4.311 c 1.264 -1.647 3.822 -1.851 5.532 -0.837 c 1.356 0.9 1.429 2.698 1.486 4.164 c 0.026 4.475 0.002 8.953 0.01 13.426 c 2.618 0.006 5.241 0.01 7.862 0.004 c 0 -5.457 -0.004 -10.912 0.002 -16.371 c -0.055 -2.26 -0.615 -4.699 -2.319 -6.304 c -1.647 -1.602 -4.062 -2.077 -6.286 -2.061 Z" />
<path class="path3" d="M 37.129 8.603 c -5.188 -3.59 -12.989 -2.845 -17.338 1.761 c -2.217 2.264 -3.415 5.453 -3.345 8.611 c -0.071 2.977 0.743 6.039 2.627 8.383 c 1.942 2.441 4.948 3.848 8 4.262 c 3.459 0.432 7.173 0.092 10.201 -1.755 c 2.23 -1.344 3.838 -3.596 4.465 -6.11 c -2.462 -0.014 -4.925 -0.02 -7.383 0 c -1.535 3.101 -6.212 3.49 -8.538 1.104 c -0.996 -1.038 -1.35 -2.498 -1.484 -3.891 c 5.944 -0.022 11.891 0.01 17.835 -0.016 c 0.167 -4.551 -1.173 -9.578 -5.039 -12.347 Z M 24.334 16.525 c 0.346 -1.804 1.346 -3.622 3.111 -4.366 c 1.938 -0.849 4.451 -0.324 5.691 1.448 c 0.643 0.843 0.916 1.885 1.073 2.918 c -3.29 0.022 -6.581 0.018 -9.875 0 Z" />
<path class="path4" d="M 151.298 9.869 c -3.174 -4.443 -10.437 -4.372 -14 -0.456 c -2.315 2.531 -3.274 6.064 -3.201 9.442 c -0.029 3.616 0.912 7.446 3.425 10.164 c 1.993 2.162 5.017 3.146 7.917 2.936 c 2.476 -0.031 4.789 -1.405 6.196 -3.409 c -0.008 0.912 -0.004 1.828 0 2.745 c 2.509 0 5.017 0 7.524 0 c 0 -10.486 0.008 -20.972 0 -31.458 c -2.616 0 -5.235 -0.01 -7.851 0.01 c -0.008 3.341 -0.002 6.683 -0.008 10.026 Z M 150.222 24.307 c -1.409 1.875 -4.484 2.101 -6.186 0.507 c -1.234 -1.083 -1.725 -2.745 -1.932 -4.319 c -0.246 -1.989 -0.075 -4.146 1.022 -5.878 c 0.54 -0.882 1.413 -1.535 2.413 -1.798 c 1.6 -0.485 3.516 -0.016 4.563 1.33 c 1.179 1.509 1.458 3.512 1.446 5.377 c -0.065 1.653 -0.307 3.415 -1.326 4.781 Z" />
<path class="path5" d="M 109.874 6.843 c -1.751 -0.285 -3.596 -0.23 -5.259 0.446 c -1.812 0.69 -3.14 2.234 -3.944 3.958 c 0.049 -1.344 0.037 -2.682 0.031 -4.021 c -2.564 -0.006 -5.129 -0.002 -7.693 -0.002 c 0 8.022 -0.002 16.047 0.004 24.069 c 2.616 0 5.237 0 7.855 0 c 0.014 -3.938 -0.026 -7.872 0.016 -11.81 c -0.012 -1.938 0.904 -3.903 2.596 -4.915 c 1.918 -1.199 4.313 -0.973 6.404 -0.399 c -0.024 -2.443 -0.004 -4.887 -0.01 -7.326 Z" />
<path class="path6" d="M 133.027 13.589 c -0.1 -1.694 -0.77 -3.398 -2.028 -4.565 c -2.02 -1.861 -4.891 -2.299 -7.532 -2.439 c -3.392 -0.122 -7.057 0.069 -9.965 2.014 c -2.026 1.315 -3.103 3.708 -3.18 6.074 c 2.482 -0.004 4.962 0.012 7.442 -0.01 c 0.324 -1.197 1.083 -2.384 2.344 -2.73 c 1.602 -0.432 3.549 -0.303 4.811 0.878 c 1.028 0.981 0.631 3.04 -0.833 3.339 c -3.736 0.969 -7.827 0.682 -11.317 2.519 c -1.649 0.821 -2.885 2.415 -3.183 4.239 c -0.322 2.065 -0.193 4.366 1.087 6.104 c 1.205 1.704 3.256 2.62 5.282 2.875 c 3.376 0.43 7.072 -0.344 9.584 -2.753 c 0.179 0.688 0.028 1.609 0.554 2.126 c 2.629 0.086 5.265 0.01 7.898 0.026 c -0.513 -1.246 -0.837 -2.574 -0.865 -3.926 c -0.195 -4.589 -0.012 -9.183 -0.1 -13.77 Z M 124.28 25.588 c -1.214 1.47 -3.441 1.725 -5.174 1.191 c -1.254 -0.334 -1.983 -1.739 -1.694 -2.971 c 0.147 -0.953 0.937 -1.659 1.792 -2.01 c 2.002 -0.841 4.251 -0.806 6.245 -1.676 c -0.059 1.851 -0.004 3.905 -1.169 5.465 Z" />
<path class="path7" d="M 183.129 13.581 c -0.088 -1.545 -0.658 -3.089 -1.708 -4.237 c -1.918 -2.046 -4.86 -2.574 -7.536 -2.745 c -3.488 -0.151 -7.269 -0.01 -10.266 1.987 c -2.036 1.313 -3.113 3.71 -3.193 6.082 c 2.484 0.004 4.964 0.01 7.446 -0.004 c 0.318 -1.201 1.081 -2.388 2.342 -2.735 c 1.6 -0.428 3.547 -0.301 4.809 0.878 c 1.028 0.992 0.629 3.052 -0.847 3.343 c -3.726 0.961 -7.8 0.684 -11.284 2.506 c -1.655 0.821 -2.895 2.415 -3.201 4.241 c -0.322 2.067 -0.195 4.368 1.087 6.11 c 1.205 1.706 3.254 2.623 5.28 2.877 c 3.38 0.43 7.08 -0.34 9.594 -2.763 c 0.1 0.702 0.212 1.401 0.328 2.105 c 2.702 0.14 5.41 0.024 8.118 0.063 c -0.515 -1.26 -0.841 -2.596 -0.869 -3.96 c -0.191 -4.581 -0.01 -9.169 -0.1 -13.75 Z M 174.391 25.578 c -1.266 1.525 -3.614 1.773 -5.392 1.12 c -1.808 -0.627 -2.065 -3.366 -0.521 -4.42 c 2.105 -1.397 4.807 -1.138 7.074 -2.152 c -0.057 1.849 -0.006 3.893 -1.161 5.453 Z" />
<path class="path8" d="M 201.9 14.161 c -0.018 -2.443 0.008 -4.885 -0.012 -7.328 c -1.749 -0.265 -3.586 -0.22 -5.239 0.452 c -1.818 0.688 -3.158 2.234 -3.95 3.966 c 0.037 -1.342 0.026 -2.686 0.026 -4.027 c -2.568 0 -5.133 0 -7.695 0 c 0 8.022 0 16.047 0 24.069 c 2.618 0 5.239 0 7.857 0 c 0.026 -4.054 -0.055 -8.11 0.041 -12.16 c 0.031 -2.313 1.625 -4.52 3.867 -5.145 c 1.672 -0.542 3.449 -0.242 5.105 0.173 Z" />
<path class="path9" d="M 203.608 22.613 c -2.893 0.004 -5.785 0 -8.676 0.004 c 0.012 2.918 -0.008 5.836 0.006 8.753 c 2.891 0.006 5.783 0.01 8.676 0 c -0.006 -2.918 0.006 -5.838 -0.006 -8.757 Z" />
</symbol>
<symbol id="icon-next" viewBox="0 0 19 32">
<path class="path1" d="M 2.774 30.807 c -0.388 0 -0.775 -0.149 -1.074 -0.447 c -0.596 -0.596 -0.596 -1.581 0 -2.177 l 12.287 -12.287 l -12.287 -12.257 c -0.596 -0.596 -0.596 -1.581 0 -2.177 s 1.581 -0.596 2.177 0 l 13.361 13.361 c 0.596 0.596 0.596 1.581 0 2.177 l -13.361 13.361 c -0.298 0.298 -0.686 0.447 -1.103 0.447 Z" />
</symbol>
<symbol id="icon-monowear-Horz" viewBox="0 0 142 32">
<path class="path1" fill="#2d2d2d" d="M 38.846 12.683 h 1.38 v 1.539 c 0.159 -0.318 0.425 -0.531 0.637 -0.743 s 0.531 -0.425 0.743 -0.531 s 0.531 -0.212 0.796 -0.318 c 0.318 -0.053 0.531 -0.106 0.743 -0.106 s 0.478 0.053 0.69 0.106 s 0.478 0.159 0.637 0.318 c 0.212 0.106 0.425 0.318 0.584 0.531 s 0.425 0.478 0.584 0.796 c 0.159 -0.318 0.425 -0.584 0.637 -0.796 s 0.531 -0.425 0.743 -0.531 c 0.318 -0.106 0.584 -0.212 0.796 -0.318 c 0.318 -0.053 0.584 -0.106 0.796 -0.106 c 0.425 0 0.796 0.053 1.221 0.212 c 0.371 0.159 0.69 0.371 0.955 0.584 c 0.318 0.212 0.478 0.584 0.637 0.955 s 0.212 0.743 0.212 1.168 v 6.846 h -1.221 v -6.474 c 0 -0.425 -0.053 -0.69 -0.159 -1.008 c -0.106 -0.212 -0.212 -0.478 -0.478 -0.637 c -0.159 -0.159 -0.425 -0.318 -0.584 -0.371 c -0.212 -0.053 -0.478 -0.106 -0.637 -0.106 c -0.318 0 -0.584 0.053 -0.902 0.159 s -0.584 0.318 -0.796 0.531 s -0.425 0.531 -0.584 0.796 c -0.159 0.318 -0.212 0.637 -0.212 1.061 v 5.837 h -1.38 v -6.368 c 0 -0.425 -0.053 -0.69 -0.159 -1.008 c -0.106 -0.212 -0.212 -0.478 -0.425 -0.637 c -0.159 -0.159 -0.371 -0.318 -0.584 -0.371 s -0.425 -0.106 -0.584 -0.106 c -0.371 0 -0.69 0.053 -1.061 0.212 s -0.584 0.425 -0.796 0.637 c -0.212 0.318 -0.425 0.584 -0.584 0.902 c -0.106 0.318 -0.212 0.637 -0.212 0.902 v 5.784 h -1.539 v -9.34 h 0.106 Z" />
<path class="path2" fill="#2d2d2d" d="M 54.766 17.459 c 0 -0.69 0.106 -1.327 0.318 -1.91 c 0.159 -0.584 0.478 -1.114 0.796 -1.592 c 0.371 -0.478 0.796 -0.796 1.327 -1.061 c 0.531 -0.212 1.167 -0.425 1.857 -0.425 s 1.274 0.106 1.857 0.425 c 0.531 0.212 1.008 0.584 1.327 1.061 c 0.371 0.478 0.637 1.008 0.796 1.592 s 0.318 1.221 0.318 1.91 c 0 0.69 -0.106 1.327 -0.318 1.91 c -0.159 0.584 -0.478 1.114 -0.796 1.592 c -0.371 0.478 -0.796 0.796 -1.327 1.061 c -0.531 0.212 -1.167 0.425 -1.857 0.425 s -1.274 -0.106 -1.857 -0.425 c -0.531 -0.212 -1.008 -0.584 -1.327 -1.061 s -0.637 -0.955 -0.796 -1.592 c -0.212 -0.637 -0.318 -1.274 -0.318 -1.91 Z M 56.146 17.459 c 0 0.531 0.053 1.008 0.159 1.486 s 0.371 0.796 0.584 1.168 s 0.584 0.584 0.955 0.743 c 0.371 0.159 0.743 0.318 1.221 0.318 s 0.902 -0.106 1.221 -0.318 c 0.371 -0.159 0.637 -0.478 0.955 -0.743 c 0.212 -0.371 0.478 -0.69 0.584 -1.168 s 0.212 -0.955 0.212 -1.486 s -0.053 -1.008 -0.212 -1.486 c -0.106 -0.478 -0.371 -0.796 -0.584 -1.168 s -0.584 -0.584 -0.955 -0.796 c -0.371 -0.159 -0.743 -0.318 -1.221 -0.318 s -0.902 0.106 -1.221 0.318 s -0.637 0.478 -0.955 0.796 c -0.212 0.371 -0.478 0.69 -0.584 1.168 c -0.053 0.478 -0.159 0.955 -0.159 1.486 Z" />
<path class="path3" fill="#2d2d2d" d="M 66.282 12.683 h 1.38 v 1.486 c 0.478 -0.584 1.061 -1.008 1.592 -1.221 c 0.584 -0.212 1.168 -0.371 1.751 -0.371 c 0.478 0 0.902 0.053 1.221 0.159 c 0.371 0.106 0.637 0.318 0.902 0.584 c 0.212 0.212 0.425 0.531 0.584 0.902 c 0.106 0.371 0.159 0.743 0.159 1.168 v 6.793 h -1.38 v -6.633 c 0 -0.371 -0.053 -0.584 -0.106 -0.796 s -0.159 -0.425 -0.371 -0.531 c -0.159 -0.106 -0.371 -0.212 -0.531 -0.318 c -0.212 -0.053 -0.478 -0.106 -0.69 -0.106 c -0.425 0 -0.796 0.053 -1.221 0.212 c -0.371 0.159 -0.69 0.371 -1.008 0.584 s -0.531 0.531 -0.637 0.902 c -0.159 0.371 -0.212 0.637 -0.212 1.008 v 5.678 h -1.38 l -0.053 -9.499 Z" />
<path class="path4" fill="#2d2d2d" d="M 76.789 17.459 c 0 -0.69 0.106 -1.327 0.318 -1.91 c 0.159 -0.584 0.478 -1.114 0.796 -1.592 c 0.371 -0.478 0.796 -0.796 1.327 -1.061 c 0.531 -0.212 1.168 -0.425 1.857 -0.425 s 1.274 0.106 1.857 0.425 c 0.531 0.212 1.008 0.584 1.327 1.061 c 0.371 0.478 0.637 1.008 0.796 1.592 s 0.318 1.221 0.318 1.91 c 0 0.69 -0.106 1.327 -0.318 1.91 s -0.478 1.114 -0.796 1.592 s -0.796 0.796 -1.327 1.061 c -0.531 0.212 -1.168 0.425 -1.857 0.425 s -1.274 -0.106 -1.857 -0.425 c -0.531 -0.212 -1.008 -0.584 -1.327 -1.061 c -0.371 -0.478 -0.637 -0.955 -0.796 -1.592 c -0.212 -0.637 -0.318 -1.274 -0.318 -1.91 Z M 78.169 17.459 c 0 0.531 0.053 1.008 0.159 1.486 s 0.371 0.796 0.584 1.168 c 0.212 0.371 0.584 0.584 0.955 0.743 s 0.743 0.318 1.221 0.318 c 0.478 0 0.902 -0.106 1.221 -0.318 c 0.371 -0.159 0.637 -0.478 0.955 -0.743 c 0.212 -0.371 0.478 -0.69 0.584 -1.168 s 0.212 -0.955 0.212 -1.486 s -0.053 -1.008 -0.212 -1.486 c -0.106 -0.478 -0.371 -0.796 -0.584 -1.168 s -0.584 -0.584 -0.955 -0.796 c -0.371 -0.159 -0.743 -0.318 -1.221 -0.318 s -0.902 0.106 -1.221 0.318 s -0.637 0.478 -0.955 0.796 c -0.212 0.371 -0.478 0.69 -0.584 1.168 c -0.053 0.478 -0.159 0.955 -0.159 1.486 Z" />
<path class="path5" fill="#2d2d2d" d="M 93.4 14.222 l -2.229 7.96 h -1.486 l -2.76 -9.499 h 1.486 l 2.07 7.748 l 2.176 -7.748 h 1.592 l 2.123 7.748 l 2.123 -7.748 h 1.486 l -2.866 9.499 h -1.486 l -2.229 -7.96 Z" />
<path class="path6" fill="#2d2d2d" d="M 103.27 17.672 c 0 0.478 0.053 0.902 0.212 1.274 c 0.159 0.425 0.371 0.743 0.584 1.114 s 0.584 0.584 0.955 0.743 c 0.371 0.159 0.69 0.318 1.114 0.318 c 1.327 0 2.282 -0.637 2.76 -1.91 h 1.274 c -0.106 0.531 -0.318 0.955 -0.531 1.327 s -0.584 0.69 -0.955 1.008 s -0.743 0.478 -1.168 0.584 c -0.425 0.106 -0.902 0.212 -1.327 0.212 c -0.637 0 -1.274 -0.106 -1.804 -0.425 s -1.008 -0.637 -1.38 -1.114 c -0.371 -0.478 -0.637 -1.008 -0.902 -1.645 s -0.318 -1.274 -0.318 -1.91 c 0 -0.637 0.106 -1.221 0.318 -1.804 c 0.159 -0.584 0.478 -1.114 0.902 -1.539 c 0.371 -0.478 0.796 -0.796 1.327 -1.061 c 0.531 -0.212 1.114 -0.425 1.804 -0.425 c 0.637 0 1.221 0.106 1.751 0.371 c 0.531 0.212 0.955 0.584 1.327 1.008 s 0.637 0.902 0.796 1.486 s 0.318 1.167 0.318 1.857 v 0.584 h -7.058 v -0.053 Z M 108.949 16.61 c 0 -0.425 -0.053 -0.743 -0.212 -1.114 c -0.106 -0.371 -0.371 -0.637 -0.584 -0.955 c -0.212 -0.212 -0.531 -0.478 -0.902 -0.584 c -0.371 -0.159 -0.743 -0.212 -1.168 -0.212 s -0.743 0.053 -1.114 0.212 c -0.371 0.159 -0.637 0.371 -0.902 0.637 s -0.478 0.584 -0.584 0.955 c -0.106 0.371 -0.212 0.69 -0.212 1.061 h 5.678 Z" />
<path class="path7" fill="#2d2d2d" d="M 113.459 15.23 c 0 -0.478 0.159 -0.902 0.425 -1.221 c 0.212 -0.371 0.531 -0.637 0.902 -0.902 c 0.371 -0.212 0.743 -0.425 1.168 -0.478 c 0.425 -0.106 0.902 -0.159 1.274 -0.159 c 0.478 0 0.955 0.053 1.327 0.159 c 0.478 0.106 0.796 0.318 1.168 0.478 c 0.371 0.212 0.637 0.531 0.796 0.902 c 0.212 0.371 0.318 0.796 0.318 1.274 v 5.041 c 0 0.106 0 0.159 0.053 0.318 c 0.053 0.106 0.053 0.159 0.159 0.318 c 0.053 0.053 0.106 0.106 0.212 0.159 c 0.053 0.053 0.159 0.053 0.318 0.053 c 0.053 0 0.106 0 0.212 0 c 0.053 0 0.159 -0.053 0.212 -0.053 v 1.168 c -0.159 0.053 -0.371 0.106 -0.531 0.106 c -0.106 0 -0.318 0.053 -0.478 0.053 c -0.425 0 -0.743 -0.159 -1.008 -0.478 c -0.318 -0.318 -0.425 -0.743 -0.478 -1.38 c -0.318 0.425 -0.584 0.69 -0.902 0.955 c -0.318 0.212 -0.584 0.425 -0.902 0.584 c -0.318 0.106 -0.584 0.212 -0.902 0.212 c -0.318 0.053 -0.584 0.053 -0.902 0.053 c -0.425 0 -0.743 -0.053 -1.114 -0.159 s -0.637 -0.318 -0.902 -0.531 s -0.478 -0.531 -0.584 -0.796 c -0.159 -0.371 -0.212 -0.69 -0.212 -1.114 s 0.106 -0.743 0.318 -1.061 s 0.425 -0.531 0.69 -0.743 c 0.318 -0.212 0.637 -0.425 1.008 -0.531 s 0.743 -0.318 1.168 -0.425 s 0.743 -0.212 1.168 -0.318 c 0.371 -0.106 0.69 -0.212 1.008 -0.371 c 0.318 -0.106 0.531 -0.318 0.69 -0.425 c 0.159 -0.159 0.318 -0.371 0.318 -0.584 c 0 -0.531 -0.159 -0.955 -0.584 -1.221 c -0.425 -0.212 -1.008 -0.371 -1.698 -0.371 c -0.318 0 -0.531 0 -0.796 0.053 c -0.212 0.053 -0.478 0.106 -0.637 0.212 s -0.371 0.318 -0.478 0.478 s -0.212 0.425 -0.212 0.69 h -1.592 v 0.053 Z M 119.456 16.823 c -0.159 0.212 -0.478 0.371 -0.743 0.531 c -0.318 0.106 -0.637 0.212 -1.008 0.371 s -0.69 0.212 -1.114 0.318 c -0.371 0.106 -0.69 0.212 -1.008 0.371 c -0.318 0.106 -0.531 0.318 -0.69 0.531 c -0.159 0.159 -0.318 0.478 -0.318 0.743 s 0.053 0.531 0.106 0.69 c 0.106 0.159 0.212 0.371 0.371 0.478 s 0.371 0.212 0.531 0.318 c 0.159 0.053 0.425 0.053 0.584 0.053 c 0.584 0 1.168 -0.159 1.698 -0.531 c 0.584 -0.371 1.061 -0.902 1.486 -1.645 v -2.176 h 0.106 v -0.053 Z" />
<path class="path8" fill="#2d2d2d" d="M 124.869 12.683 h 1.38 l -0.053 1.486 c 0.318 -0.531 0.637 -0.955 1.061 -1.221 c 0.425 -0.318 0.902 -0.425 1.38 -0.425 c 0.106 0 0.212 0 0.371 0 c 0.106 0 0.212 0.053 0.371 0.053 v 1.486 c -0.318 -0.106 -0.531 -0.159 -0.69 -0.159 c -0.371 0 -0.69 0.053 -1.008 0.212 s -0.531 0.371 -0.743 0.584 c -0.159 0.212 -0.371 0.531 -0.478 0.796 s -0.159 0.637 -0.159 1.008 v 5.678 h -1.38 v -9.499 h -0.053 Z" />
<path class="path9" fill="#2d2d2d" d="M 132.405 13.214 v -4.245 h -1.645 v -0.743 h 4.086 v 0.69 h -1.645 v 4.245 h -0.796 v 0.053 Z M 135.43 13.214 v -5.041 h 1.221 l 1.274 4.033 l 1.221 -4.033 h 1.221 v 5.041 h -0.743 v -4.192 l -1.274 4.192 h -0.743 l -1.327 -4.245 v 4.245 h -0.849 Z" />
<path class="path10" fill="#2d2d2d" d="M 16.133 0.796 c -8.332 0 -15.124 6.793 -15.124 15.177 s 6.793 15.177 15.177 15.177 c 8.385 0 15.177 -6.793 15.177 -15.177 s -6.846 -15.177 -15.23 -15.177 Z M 7.376 14.7 c 0.053 -0.106 0.159 -0.212 0.425 -0.212 h 0.425 c 0.106 0 0.212 -0.053 0.265 -0.053 l 2.813 -8.066 c 0.212 -0.371 0.531 -0.584 0.955 -0.584 c 0.478 0 0.849 0.212 0.955 0.531 l 2.866 8.013 l 2.919 -8.119 c 0.106 -0.371 0.478 -0.531 0.955 -0.531 s 0.849 0.212 0.955 0.584 l 2.813 8.013 c 0 0 0.053 0.106 0.265 0.106 h 0.425 c 0.265 0 0.584 0.265 0.584 0.531 s -0.265 0.531 -0.531 0.531 h -0.425 c -0.637 0 -1.168 -0.318 -1.274 -0.796 l -2.813 -7.854 l -2.813 8.172 c -0.212 0.318 -0.425 0.478 -0.796 0.531 h -0.371 c -0.053 0 -0.159 0 -0.318 -0.053 c -0.212 -0.106 -0.371 -0.265 -0.425 -0.425 h -0.053 v -0.053 l -2.972 -8.172 l -2.706 7.96 c -0.265 0.478 -0.69 0.743 -1.274 0.743 h -0.425 c -0.265 0 -0.531 -0.265 -0.531 -0.531 c 0 -0.053 0 -0.212 0.106 -0.265 Z M 24.464 18.202 h -0.425 c -0.212 0 -0.265 0.053 -0.265 0.106 l -2.813 8.013 c -0.106 0.371 -0.425 0.584 -0.955 0.584 c -0.478 0 -0.849 -0.212 -0.955 -0.531 l -2.919 -8.119 l -2.866 8.013 c -0.106 0.371 -0.478 0.531 -0.955 0.531 c -0.425 0 -0.743 -0.212 -0.955 -0.584 l -2.813 -8.066 c -0.053 0 -0.159 -0.053 -0.265 -0.053 h -0.425 c -0.265 0 -0.371 -0.106 -0.425 -0.212 s -0.053 -0.212 -0.053 -0.265 c 0 -0.265 0.265 -0.531 0.531 -0.531 h 0.425 c 0.531 0 1.008 0.265 1.274 0.743 l 2.706 7.96 l 2.972 -8.226 h 0.053 c 0.053 -0.159 0.265 -0.318 0.425 -0.425 c 0.106 -0.053 0.265 -0.053 0.318 -0.053 h 0.371 c 0.371 0.053 0.584 0.212 0.796 0.531 l 2.813 8.172 l 2.76 -7.854 c 0.106 -0.478 0.637 -0.743 1.274 -0.743 h 0.425 c 0.265 0 0.531 0.265 0.531 0.531 s -0.318 0.478 -0.584 0.478 Z" />
</symbol>
<symbol id="icon-macworld" viewBox="0 0 128 32">
<path class="path1" d="M 17.141 26.167 v -11.731 h -0.098 l -5.67 9.45 h -1.238 l -5.67 -9.45 h -0.033 v 11.731 h -4.562 v -20.204 h 4.367 l 6.615 11.079 h 0.065 l 6.615 -11.079 h 4.171 v 20.204 h -4.562 Z M 24.081 12.253 c 1.434 -0.717 4.073 -1.597 7.006 -1.597 c 3.487 0 6.908 1.173 6.908 4.595 v 8.081 c 0 0.684 0.196 1.89 0.554 2.868 h -4.106 c -0.163 -0.326 -0.293 -1.141 -0.358 -1.695 c -1.108 1.075 -2.444 2.118 -5.084 2.118 c -3.65 0 -5.996 -2.183 -5.996 -5.149 c 0 -2.835 2.444 -5.018 6.68 -5.018 c 1.597 0 3.063 0.391 4.367 1.238 v -1.532 c 0 -1.564 -1.401 -2.281 -3.226 -2.281 c -1.923 0 -4.367 0.847 -5.475 1.434 c 0 0 -1.271 -3.063 -1.271 -3.063 Z M 34.086 21.931 v -1.466 c -0.652 -0.554 -1.988 -1.075 -3.552 -1.075 c -2.444 0 -3.356 0.945 -3.356 2.118 c 0 1.271 1.043 2.118 2.802 2.118 c 2.151 -0.033 3.454 -1.271 4.106 -1.695 Z M 51.715 15.935 c -1.238 -1.206 -2.672 -1.792 -3.878 -1.792 c -2.216 0 -4.041 1.727 -4.041 4.497 s 1.923 4.627 4.171 4.627 c 1.532 0 2.9 -0.945 4.073 -2.053 l 2.542 2.542 c -0.652 0.782 -3.193 2.965 -7.071 2.965 c -4.367 0 -8.114 -3.226 -8.114 -8.081 c 0 -4.823 3.617 -7.984 8.114 -7.984 c 2.314 0 4.758 0.815 6.745 2.574 l -2.542 2.705 Z M 68.204 11.177 l 2.737 9.45 h 0.196 l 2.346 -9.45 h 4.236 l -4.79 14.99 h -3.943 l -2.639 -9.124 h -0.196 l -2.672 9.124 h -3.91 l -4.79 -14.99 h 4.334 l 2.411 9.45 h 0.196 l 2.737 -9.45 h 3.747 Z M 85.312 10.623 c 4.921 0 8.277 3.487 8.277 7.984 s -3.324 8.114 -8.277 8.114 c -4.888 0 -8.212 -3.585 -8.212 -8.081 s 3.324 -8.016 8.212 -8.016 Z M 85.312 23.299 c 2.574 0 4.073 -2.183 4.073 -4.692 c 0 -2.477 -1.499 -4.562 -4.073 -4.562 c -2.509 0 -3.976 2.086 -3.976 4.562 c 0.033 2.542 1.466 4.692 3.976 4.692 Z M 98.933 16.521 v 9.646 h -4.236 v -10.754 c 0 -1.271 0.033 -2.574 -0.293 -4.204 h 3.78 c 0.13 0.652 0.261 1.466 0.326 2.216 c 0.945 -1.564 2.02 -2.77 3.976 -2.77 c 0.782 0 1.792 0.196 2.314 0.619 l -1.141 3.78 c -0.456 -0.196 -1.532 -0.424 -2.086 -0.424 c -1.075 -0.033 -1.662 0.815 -2.639 1.89 v 0 Z M 106.102 26.167 v -21.507 h 4.236 v 21.507 h -4.236 Z M 123.927 26.167 c -0.098 -0.326 -0.163 -1.238 -0.196 -1.76 c -0.945 1.043 -2.574 2.248 -4.692 2.248 c -4.041 0 -7.332 -3.193 -7.332 -8.049 c 0 -4.823 3.389 -7.984 7.365 -7.984 c 1.499 0 2.998 0.717 4.301 1.857 v -7.821 h 4.236 v 17.271 c 0 1.238 -0.13 2.607 0.196 4.236 h -3.878 Z M 116.171 18.64 c 0 2.77 1.564 4.595 3.519 4.595 c 1.792 0 3.031 -1.108 3.682 -1.662 v -5.735 c -1.303 -1.043 -2.444 -1.694 -3.682 -1.694 c -1.988 0 -3.519 1.727 -3.519 4.497 Z" />
</symbol>
<symbol id="icon-macrumors" viewBox="0 0 168 32">
<path class="path1" d="M 14.92 3.56 c 0.24 -1.64 1.92 -2.56 3.44 -2.68 c 3.36 -0.36 6.28 1.6 9.32 2.6 c 1.64 0.64 3.4 0.84 5.12 0.84 c -4.2 1.32 -8.6 -0.88 -12.8 0.36 c -1.6 0.44 -2.64 1.92 -3 3.48 c -1.12 -1.24 -2.32 -2.76 -2.08 -4.6 Z" />
<path class="path2" d="M 12.88 4.32 c -0.48 -1.08 -0.24 -2.28 -0.12 -3.44 c 0.24 0.48 0.48 0.96 0.72 1.44 c -0.24 2.48 1.44 4.48 3 6.16 c -1.44 -1.08 -2.92 -2.4 -3.6 -4.16 Z" />
<path class="path3" d="M 18.12 7.36 c 1.6 -3 6.2 -2.96 8.44 -0.76 c 1.44 1.44 2 3.84 1.08 5.72 c -0.72 1.6 -1.88 2.92 -2.96 4.32 c -1.12 1.4 -1.6 3.2 -1.8 4.96 c -0.12 0.84 0.52 1.44 0.88 2.12 c -0.72 -0.52 -1.72 -1.04 -1.52 -2.08 c 0.32 -2.88 1.36 -5.64 2.32 -8.4 c 0.68 -2.04 1.04 -4.72 -0.68 -6.36 c -1.44 -1.52 -4.36 -0.8 -5 1.16 c 0.08 0.72 0.72 1.16 1.08 1.72 c 0.96 1 -0.84 2.84 -1.84 1.76 c -1.08 -1.12 -0.64 -2.92 0 -4.16 Z" />
<path class="path4" d="M 4.6 7.4 c 1.28 -1.28 3.24 -1.72 5 -1.36 c 2.64 0.44 4.96 1.84 7.16 3.32 c -2 -0.16 -4.16 -0.08 -5.8 1.2 c -1.88 1.44 -2.44 3.96 -2.32 6.24 c 0.24 3.16 1.28 6.32 3.2 8.88 c 0.88 1.12 2.16 2.36 3.72 2.08 c 1.48 -0.12 2.56 -1.24 3.6 -2.16 c 0.48 0.84 0.76 1.92 1.64 2.44 c 0.76 0.08 1.52 0.08 2.24 0.16 c -0.84 0.44 -1.8 0.48 -2.72 0.52 c -0.96 0.04 -1.56 -0.92 -2.28 -1.44 c -1.04 0.52 -2 1.4 -3.24 1.4 c -3.32 0.08 -6.48 -1.64 -8.56 -4.16 c -2.64 -3.24 -4 -7.56 -3.76 -11.76 c 0.12 -1.92 0.72 -3.96 2.12 -5.36 Z" />
<path class="path5" d="M 33.4 26 c 0.44 -6.28 0.76 -12.6 1.24 -18.92 c 1.84 0 3.68 0 5.56 0 c 1.28 4.4 2.6 8.8 3.44 13.32 c 0.96 -4.52 2.36 -8.92 3.8 -13.32 c 1.84 0 3.64 0 5.48 0 c 0.32 6.32 0.64 12.6 1 18.92 c -1.36 0 -2.72 0 -4.08 0 c -0.28 -5.08 -0.44 -10.16 -0.44 -15.24 c -1.36 5 -2.92 9.96 -4.48 14.92 c -1.08 0 -2.16 0 -3.28 0 c -1.28 -4.96 -2.8 -9.88 -3.72 -14.92 c -0.16 5.08 -0.44 10.16 -0.64 15.24 c -1.28 0 -2.6 0 -3.88 0 Z" />
<path class="path6" d="M 92.72 19.28 c -0.36 -0.96 -1.16 -1.64 -2 -2.16 c 1 -0.56 2.04 -1.2 2.6 -2.24 c 1.52 -2.4 0.52 -6.12 -2.24 -7.12 c -3.32 -1.24 -7 -0.72 -10.44 -0.4 c 0 6.2 0 12.4 0 18.6 h 4.16 c 0 -2.48 0 -4.96 0 -7.44 c 1.32 0 3.08 -0.08 3.72 1.36 c 0.8 1.96 1.04 4.12 1.84 6.08 c 1.44 0 2.88 0 4.32 0 c -0.76 -2.16 -1.12 -4.48 -1.96 -6.68 Z M 89.04 14.64 c -1.08 1.16 -2.8 0.8 -4.24 0.88 c 0 -1.76 0 -3.56 0 -5.32 c 1.28 -0.04 2.68 -0.28 3.84 0.4 c 1.4 0.76 1.6 3 0.4 4.04 Z" />
<path class="path7" d="M 67.32 16.84 c -0.12 -1.84 -1.2 -3.72 -3.04 -4.36 c -2.64 -0.92 -5.6 -0.44 -8.12 0.64 c 0.24 0.92 0.52 1.84 0.76 2.76 c 1.6 -0.76 3.48 -1.36 5.2 -0.76 c 0.76 0.28 0.96 1.08 1.2 1.76 c -2.2 0.12 -4.56 0.28 -6.36 1.64 c -2.16 1.56 -2.32 5.16 -0.2 6.84 c 2.04 1.6 5.16 1.08 6.88 -0.76 c 0.08 0.48 0.16 0.96 0.24 1.4 h 3.72 c -0.4 -3.04 -0.08 -6.12 -0.28 -9.16 Z M 62.64 22.64 c -0.96 1.2 -3.6 0.76 -3.32 -1.04 c 0.16 -1.92 2.56 -1.92 4 -2.04 c -0.04 1.04 0.24 2.32 -0.68 3.08 Z" />
<path class="path8" d="M 71.64 13.2 c 2.32 -1.44 5.24 -1.48 7.76 -0.68 c -0.24 1.04 -0.44 2.08 -0.68 3.12 c -1.28 -0.32 -2.68 -0.6 -3.96 -0.04 c -2.64 1.2 -2.76 5.6 -0.2 6.96 c 1.36 0.72 2.88 0.4 4.32 0.08 c 0.16 1.04 0.32 2.04 0.48 3.08 c -2.8 0.8 -6.16 0.92 -8.56 -0.96 c -3.4 -2.88 -3 -9.16 0.84 -11.56 Z" />
<path class="path9" d="M 114.08 14.2 c 0.88 -1.08 2 -2.04 3.44 -2.16 c 1.8 -0.36 3.64 0.56 4.48 2.2 c 0.8 -0.84 1.64 -1.76 2.84 -2.04 c 1.68 -0.48 3.76 -0.12 4.84 1.36 c 1 1.24 1.2 2.88 1.24 4.44 c 0 2.68 0 5.36 0 8 c -1.36 0 -2.72 0 -4.12 0 c 0 -2.56 0 -5.12 0 -7.68 c -0.04 -1 -0.16 -2.28 -1.2 -2.76 c -1.28 -0.76 -2.88 0.64 -2.88 2 c -0.08 2.8 0 5.6 -0.04 8.4 c -1.36 0 -2.72 0 -4.08 0 c -0.04 -2.68 0.04 -5.32 0 -8 c 0 -1.12 -0.48 -2.52 -1.8 -2.64 c -1.36 -0.04 -2.28 1.36 -2.2 2.64 c 0 2.68 0 5.32 0 8 c -1.36 0 -2.72 0 -4.08 0 c -0.04 -4.56 0.12 -9.16 -0.12 -13.72 c 1.2 0 2.36 0 3.56 0 c 0.04 0.68 0.08 1.32 0.12 1.96 Z" />
<path class="path10" d="M 144.76 14.44 c -1.72 -2.16 -4.8 -2.84 -7.4 -2.2 c -1.72 0.4 -3.36 1.4 -4.24 2.96 c -1.48 2.68 -1.44 6.32 0.52 8.76 c 2.8 3.4 8.92 3.12 11.36 -0.56 c 1.64 -2.68 1.64 -6.44 -0.24 -8.96 Z M 140.88 22.48 c -1.12 1.4 -3.56 0.76 -4.04 -0.92 c -0.76 -2.04 -0.76 -4.96 1.24 -6.28 c 1.2 -0.72 2.88 0.04 3.32 1.32 c 0.76 1.84 0.76 4.2 -0.52 5.88 Z" />
<path class="path11" d="M 151.32 14.92 c 0.76 -1.88 2.6 -3.16 4.64 -2.96 c 0.04 1.32 0.04 2.64 0.04 4 c -1.56 -0.32 -3.68 0.2 -4 2 c -0.28 2.64 -0.04 5.36 -0.12 8 c -1.4 0 -2.8 0 -4.2 0 c -0.08 -4.56 0.12 -9.16 -0.12 -13.72 c 1.2 0 2.4 0 3.6 0 c 0.08 0.92 0.12 1.8 0.16 2.68 Z" />
<path class="path12" d="M 158.56 12.88 c 2.16 -1.32 4.88 -0.96 7.16 -0.16 c -0.24 0.96 -0.48 1.92 -0.76 2.92 c -1.36 -0.48 -3.2 -1.36 -4.4 -0.12 c -0.2 0.6 -0.04 1.04 0.44 1.36 c 1.4 0.8 3.12 1.04 4.24 2.28 c 1.76 1.76 1.24 5.12 -1 6.24 c -2.48 1.32 -5.56 1.04 -8.08 -0.04 c 0.24 -1 0.52 -2 0.76 -3 c 1.48 0.6 3.08 1.28 4.68 0.8 c 0.88 -0.28 0.88 -1.6 0.08 -2 c -1.48 -0.76 -3.28 -1.12 -4.32 -2.48 c -1.56 -1.72 -0.8 -4.72 1.2 -5.8 Z" />
<path class="path13" d="M 95.6 12.28 c 1.4 0 2.8 0 4.2 0 c 0 2.6 -0.04 5.16 0 7.72 c 0.04 1.04 0.32 2.32 1.44 2.72 c 1.36 0.56 2.92 -0.6 2.96 -2.04 c 0.04 -2.8 0 -5.64 0.04 -8.44 c 1.4 0 2.8 0 4.2 0 c 0.04 4.56 -0.12 9.16 0.12 13.72 c -1.2 0 -2.44 0 -3.64 -0.04 c -0.04 -0.64 -0.08 -1.28 -0.16 -1.88 c -1.56 2.16 -4.8 2.92 -7.08 1.44 c -1.52 -1.04 -1.96 -3 -2.04 -4.72 c -0.08 -2.8 -0.04 -5.64 -0.04 -8.48 Z" />
<path class="path14" d="M 21.68 24.08 c 1.2 -0.76 2.8 0.6 2.48 1.92 c -0.2 1.36 -2.24 1.96 -3.04 0.8 c -0.8 -0.8 -0.4 -2.24 0.56 -2.72 Z" />
</symbol>
<symbol id="icon-giga" viewBox="0 0 100 32">
<path class="path1" d="M 14.933 31.177 c -0.514 -0.077 -1.054 -0.154 -1.568 -0.257 c -6.169 -1.08 -11.001 -5.835 -12.183 -11.952 c -1.388 -7.3 2.647 -14.445 9.561 -16.99 c 8.739 -3.213 18.275 2.21 19.997 11.335 c 1.542 8.122 -3.83 16.039 -11.952 17.581 c -0.617 0.128 -1.234 0.206 -1.851 0.283 c -0.668 0 -1.337 0 -2.005 0 Z M 24.777 7.839 c -0.077 -0.077 -0.128 -0.154 -0.206 -0.231 c -2.982 -2.853 -6.529 -4.035 -10.59 -3.316 c -6.863 1.208 -11.181 7.762 -9.69 14.522 c 1.259 5.706 6.528 9.921 12.851 9.407 c 3.264 -0.283 5.989 -1.722 8.122 -4.19 c 0.128 -0.154 0.231 -0.411 0.231 -0.643 c 0.026 -2.776 0 -5.526 0 -8.302 c 0 -0.129 -0.026 -0.283 -0.026 -0.411 c -3.341 0 -6.631 0 -9.973 0 c 0 1.157 0.026 2.262 0 3.367 c 0 0.386 0.077 0.514 0.488 0.514 c 1.645 -0.026 3.316 0 4.986 0 c 0.154 0 0.334 0 0.54 0 c 0 1.131 0 2.21 0 3.29 c 0 0.103 -0.103 0.206 -0.206 0.283 c -1.799 1.542 -3.881 2.185 -6.22 1.851 c -4.344 -0.591 -7.377 -4.704 -6.606 -8.97 c 0.54 -2.982 2.236 -5.063 5.115 -6.066 c 2.827 -0.977 5.423 -0.437 7.711 1.491 c 0.18 0.129 0.334 0.283 0.463 0.411 c 1.002 -1.028 2.005 -2.005 3.007 -3.007 Z" />
<path class="path2" d="M 51.765 17.735 c 0 0.206 0 0.36 0 0.514 c 0 1.953 -0.051 3.933 0.026 5.886 c 0.051 0.925 -0.334 1.414 -1.08 1.799 c -1.979 1.028 -4.061 1.285 -6.22 0.797 c -2.802 -0.617 -4.652 -2.365 -5.706 -4.961 c -1.157 -2.853 -1.285 -5.835 -0.745 -8.842 c 0.386 -2.108 1.234 -4.01 2.802 -5.526 c 2.493 -2.467 7.351 -2.904 9.921 -0.874 c 0.463 0.36 0.925 0.745 1.388 1.131 c 0.308 -0.36 0.617 -0.694 1.002 -1.131 c -0.643 -0.514 -1.208 -1.054 -1.876 -1.491 c -2.442 -1.568 -5.089 -1.645 -7.788 -0.9 c -3.239 0.9 -5.372 3.11 -6.477 6.22 c -1.439 3.984 -1.362 8.019 0.18 11.977 c 0.874 2.21 2.313 3.958 4.447 5.089 c 2.031 1.054 4.19 1.285 6.426 0.977 c 1.902 -0.257 3.598 -1.002 5.038 -2.313 c 0.206 -0.206 0.308 -0.411 0.308 -0.694 c 0 -2.879 0 -5.783 0 -8.662 c 0 -0.128 -0.026 -0.231 -0.026 -0.36 c -2.442 0 -4.858 0 -7.274 0 c 0 0.488 0 0.925 0 1.414 c 1.876 -0.051 3.727 -0.051 5.655 -0.051 Z M 77.648 17.735 c 0 0.206 0 0.36 0 0.514 c 0 2.133 0 4.267 0 6.4 c 0 0.386 -0.129 0.643 -0.437 0.848 c -1.928 1.362 -4.087 1.671 -6.349 1.337 c -3.136 -0.488 -5.192 -2.365 -6.297 -5.243 c -1.259 -3.393 -1.337 -6.863 -0.231 -10.307 c 1.08 -3.367 3.341 -5.526 6.94 -5.989 c 2.108 -0.283 4.087 0.077 5.757 1.516 c 0.308 0.283 0.643 0.54 0.951 0.822 c 0.334 -0.36 0.643 -0.72 0.951 -1.054 c -0.051 -0.077 -0.051 -0.103 -0.077 -0.128 c -0.077 -0.103 -0.18 -0.18 -0.257 -0.283 c -1.851 -1.825 -4.087 -2.596 -6.683 -2.467 c -4.01 0.206 -6.991 2.056 -8.662 5.706 c -1.851 4.035 -1.851 8.225 -0.411 12.389 c 0.874 2.545 2.467 4.524 4.935 5.732 c 1.953 0.951 4.01 1.131 6.117 0.848 c 1.902 -0.257 3.598 -1.002 5.038 -2.313 c 0.206 -0.206 0.308 -0.411 0.308 -0.694 c 0 -2.853 0 -5.732 0 -8.585 c 0 -0.154 0 -0.308 0 -0.463 c -2.467 0 -4.884 0 -7.274 0 c 0 0.488 0 0.925 0 1.388 c 1.902 0.026 3.753 0.026 5.68 0.026 Z M 58.808 28.067 c 0 -7.968 0 -15.91 0 -23.852 c -0.565 0 -1.08 0 -1.645 0 c 0 7.968 0 15.91 0 23.852 c 0.565 0 1.105 0 1.645 0 Z" />
<path class="path3" d="M 99.367 27.605 c -2.596 -7.402 -5.218 -14.805 -7.814 -22.233 c -0.129 -0.386 -0.206 -0.951 -0.488 -1.157 s -0.823 -0.051 -1.259 -0.077 c -0.308 -0.026 -0.437 0.103 -0.54 0.386 c -2.545 7.197 -5.089 14.394 -7.608 21.565 c -0.231 0.617 -0.437 1.259 -0.668 1.953 c 0.463 0 0.823 -0.026 1.208 0 s 0.54 -0.077 0.668 -0.463 c 0.797 -2.442 1.645 -4.858 2.467 -7.3 c 0.103 -0.334 0.257 -0.463 0.617 -0.463 c 2.596 0.026 5.192 0 7.762 0.026 c 0.386 0 0.9 -0.128 1.157 0.077 c 0.283 0.206 0.308 0.72 0.463 1.105 c 0.051 0.154 0.103 0.283 0.154 0.437 c 0.72 2.082 1.414 4.138 2.133 6.194 c 0.051 0.154 0.231 0.36 0.36 0.36 c 0.488 0.051 1.002 0.026 1.542 0.026 c -0.051 -0.154 -0.103 -0.283 -0.154 -0.437 Z M 86.053 18.429 l 4.19 -12.646 l 4.19 12.646 h -8.379 Z" />
<path class="path4" d="M 51.765 17.735 c -1.928 0 -3.778 0 -5.68 0 c 0 -0.463 0 -0.925 0 -1.414 c 2.416 0 4.806 0 7.274 0 c 0 0.103 0.026 0.231 0.026 0.36 c 0 2.879 0 5.783 0 8.662 c 0 0.308 -0.077 0.514 -0.308 0.694 c -1.439 1.311 -3.11 2.056 -5.038 2.313 c -2.236 0.308 -4.395 0.077 -6.426 -0.977 c -2.133 -1.131 -3.598 -2.879 -4.447 -5.089 c -1.542 -3.958 -1.619 -7.968 -0.18 -11.977 c 1.131 -3.11 3.239 -5.295 6.477 -6.22 c 2.699 -0.745 5.346 -0.668 7.788 0.9 c 0.668 0.437 1.234 0.977 1.876 1.491 c -0.386 0.411 -0.694 0.771 -1.002 1.131 c -0.463 -0.386 -0.925 -0.771 -1.388 -1.131 c -2.596 -2.031 -7.428 -1.568 -9.921 0.874 c -1.568 1.542 -2.416 3.418 -2.802 5.526 c -0.54 3.007 -0.437 5.989 0.745 8.842 c 1.054 2.596 2.93 4.344 5.706 4.961 c 2.159 0.463 4.241 0.231 6.22 -0.797 c 0.745 -0.386 1.131 -0.874 1.08 -1.799 c -0.103 -1.953 -0.026 -3.933 -0.026 -5.886 c 0.026 -0.077 0.026 -0.231 0.026 -0.463 Z" />
<path class="path5" d="M 77.648 17.735 c -1.928 0 -3.778 0 -5.68 0 c 0 -0.463 0 -0.925 0 -1.414 c 2.416 0 4.806 0 7.274 0 c 0 0.154 0 0.308 0 0.463 c 0 2.853 0 5.732 0 8.585 c 0 0.308 -0.077 0.514 -0.308 0.694 c -1.439 1.311 -3.136 2.056 -5.038 2.313 c -2.108 0.283 -4.164 0.103 -6.117 -0.848 c -2.467 -1.208 -4.061 -3.187 -4.935 -5.732 c -1.414 -4.164 -1.439 -8.353 0.411 -12.389 c 1.671 -3.65 4.652 -5.5 8.662 -5.706 c 2.57 -0.128 4.806 0.643 6.683 2.467 c 0.103 0.077 0.18 0.18 0.257 0.283 c 0.026 0.026 0.051 0.077 0.077 0.128 c -0.308 0.334 -0.617 0.694 -0.951 1.054 c -0.334 -0.283 -0.643 -0.565 -0.951 -0.822 c -1.671 -1.414 -3.65 -1.774 -5.757 -1.516 c -3.598 0.463 -5.86 2.622 -6.94 5.989 c -1.105 3.444 -1.054 6.914 0.231 10.307 c 1.08 2.904 3.161 4.781 6.297 5.243 c 2.262 0.334 4.421 0.026 6.349 -1.337 c 0.308 -0.206 0.437 -0.463 0.437 -0.848 c -0.026 -2.133 0 -4.267 0 -6.4 c 0 -0.128 0 -0.283 0 -0.514 Z" />
<path class="path6" d="M 99.521 28.093 c -0.54 0 -1.054 0.026 -1.542 -0.026 c -0.129 0 -0.308 -0.206 -0.36 -0.36 c -0.72 -2.056 -1.414 -4.138 -2.133 -6.194 c -0.051 -0.154 -0.103 -0.283 -0.154 -0.437 c -0.154 -0.386 -0.18 -0.9 -0.463 -1.105 c -0.257 -0.206 -0.771 -0.077 -1.157 -0.077 c -2.596 0 -5.192 0 -7.762 0 c -0.36 0 -0.514 0.128 -0.617 0.463 c -0.823 2.442 -1.645 4.858 -2.467 7.3 c -0.129 0.36 -0.283 0.488 -0.668 0.463 s -0.745 0 -1.208 0 c 0.257 -0.694 0.463 -1.337 0.694 -1.953 c 2.545 -7.197 5.089 -14.394 7.608 -21.565 c 0.103 -0.283 0.231 -0.411 0.54 -0.386 c 0.411 0.026 0.951 -0.128 1.259 0.077 c 0.283 0.206 0.334 0.745 0.488 1.157 c 2.596 7.402 5.218 14.805 7.814 22.233 c 0.026 0.077 0.077 0.206 0.129 0.411 Z M 94.432 18.429 c -1.414 -4.241 -2.802 -8.456 -4.19 -12.646 c -1.388 4.19 -2.776 8.405 -4.19 12.646 c 2.802 0 5.578 0 8.379 0 Z" />
<path class="path7" d="M 58.808 28.067 c -0.54 0 -1.08 0 -1.645 0 c 0 -7.968 0 -15.884 0 -23.852 c 0.54 0 1.08 0 1.645 0 c 0 7.942 0 15.884 0 23.852 Z" />
</symbol>
<symbol id="icon-bowtie" viewBox="0 0 68 32">
<path class="path1" d="M 66.344 13.209 c -0.707 -8.521 -3.014 -10.605 -4.837 -10.865 c -6.474 -0.819 -18.009 5.023 -23.293 7.926 c -1.34 -0.893 -2.94 -1.377 -4.577 -1.377 s -3.163 0.447 -4.502 1.34 c -4.428 -2.456 -16.447 -8.707 -23.181 -7.851 c -1.823 0.223 -4.13 2.307 -4.837 10.902 c -0.744 10.567 2.53 13.135 4.54 13.73 c 1.191 0.335 2.716 0.521 4.428 0.521 c 6.474 0 15.293 -2.344 18.642 -3.312 c 1.451 1.042 3.2 1.637 4.986 1.637 c 1.823 0 3.572 -0.595 5.023 -1.674 c 3.312 0.967 12.167 3.349 18.753 3.349 c 1.749 0 3.237 -0.186 4.428 -0.521 c 5.06 -1.488 4.651 -10.94 4.428 -13.805 Z M 61.805 19.2 c -0.335 2.567 -1.042 3.423 -1.191 3.498 c -2.307 0.67 -6.884 0.372 -12.8 -0.893 c -2.419 -0.521 -4.577 -1.042 -5.953 -1.414 c 0.558 -1.6 0.856 -3.944 -0.372 -6.772 c 1.712 -0.93 4.093 -2.158 6.586 -3.274 c 5.433 -2.456 9.823 -3.721 12.428 -3.609 c 0.707 1.414 2.009 7.144 1.302 12.465 Z M 33.712 13.433 c 2.195 0 3.981 1.786 3.981 3.981 s -1.786 3.981 -3.981 3.981 s -3.981 -1.786 -3.981 -3.981 c 0 -2.195 1.786 -3.981 3.981 -3.981 Z M 25.674 20.428 c -2.084 0.558 -4.093 1.005 -5.991 1.377 v 0 c -5.954 1.228 -10.53 1.526 -12.837 0.893 c -0.149 -0.074 -0.819 -0.893 -1.191 -3.498 c -0.707 -5.358 0.633 -11.126 1.34 -12.428 c 4.391 -0.26 12.726 3.423 19.051 6.884 c -1.228 2.828 -0.93 5.172 -0.372 6.772 Z" />
</symbol>
<symbol id="icon-to5" viewBox="0 0 161 32">
<path class="path1" fill="#000" d="M 49.617 3.837 c 0.608 0.089 1.219 0.161 1.823 0.269 c 5.147 0.922 9.451 5.069 10.287 10.247 c 1.07 6.622 -3.341 12.745 -9.7 14.224 c -6.538 1.52 -12.997 -2.305 -15.057 -8.12 c -2.193 -6.189 1.084 -13.249 7.307 -15.663 c 1.251 -0.486 2.537 -0.807 3.882 -0.872 c 0.141 -0.007 0.28 -0.056 0.419 -0.085 c 0.346 0 0.692 0 1.038 0 Z M 59.611 16.313 c -0.149 -0.874 -0.218 -1.771 -0.458 -2.619 c -1.605 -5.652 -7.668 -8.862 -13.268 -7.056 c -5.208 1.68 -8.22 6.988 -6.92 12.224 c 1.269 5.114 6.645 8.664 12.073 7.611 c 5.005 -0.971 8.436 -5.115 8.574 -10.16 Z" />
<path class="path2" fill="#000" d="M 12.691 3.837 c 0.573 0.114 1.162 0.177 1.715 0.352 c 3.25 1.029 5.202 3.254 5.883 6.573 c 0.476 2.322 -0.04 4.502 -1.275 6.476 c -1.548 2.474 -3.194 4.885 -4.802 7.321 c -0.801 1.212 -1.616 2.414 -2.414 3.628 c -0.141 0.214 -0.292 0.303 -0.556 0.296 c -0.762 -0.02 -1.526 -0.007 -2.391 -0.007 c 1.911 -2.832 3.781 -5.604 5.674 -8.408 c -0.571 0.192 -1.068 0.431 -1.591 0.523 c -2.694 0.476 -4.936 -0.402 -6.727 -2.418 c -1.651 -1.859 -2.44 -4.065 -2.224 -6.547 c 0.325 -3.742 3.061 -7.011 6.753 -7.612 c 0.335 -0.054 0.669 -0.118 1.004 -0.178 c 0.318 0 0.635 0 0.952 0 Z M 12.281 18.377 c 1.154 0.035 2.216 -0.26 3.177 -0.901 c 2.889 -1.927 3.489 -6.137 1.294 -9.045 c -1.887 -2.5 -5.284 -3.058 -7.825 -1.228 c -1.937 1.395 -2.794 3.314 -2.572 5.715 c 0.249 2.691 2.75 5.599 5.925 5.459 Z" />
<path class="path3" fill="#000" d="M 65.111 20.951 c 0.734 0 1.437 -0.015 2.137 0.019 c 0.092 0.005 0.232 0.255 0.247 0.402 c 0.227 2.256 1.985 4.402 4.152 5.044 c 3.116 0.924 6.272 -0.861 7.24 -4.092 c 0.924 -3.084 -0.612 -6.478 -3.496 -7.62 c -2.277 -0.902 -4.304 -0.313 -6.139 1.178 c -0.156 0.127 -0.334 0.249 -0.438 0.414 c -0.351 0.553 -0.778 0.547 -1.309 0.277 c -0.34 -0.173 -0.72 -0.267 -1.101 -0.403 c 0.73 -3.967 1.454 -7.907 2.183 -11.869 c 3.634 0 7.258 0 10.91 0 c 0 0.694 0 1.378 0 2.116 c -0.159 0 -0.311 0 -0.465 0 c -2.694 0 -5.389 0.004 -8.083 -0.005 c -0.322 -0.001 -0.461 0.057 -0.524 0.427 c -0.338 1.991 -0.721 3.973 -1.085 5.959 c -0.017 0.095 -0.002 0.196 -0.002 0.318 c 0.571 -0.238 1.109 -0.506 1.674 -0.691 c 3.976 -1.299 8.149 0.694 9.824 4.676 c 1.884 4.478 -0.326 9.755 -4.756 11.356 c -4.417 1.596 -9.288 -0.951 -10.624 -5.567 c -0.151 -0.521 -0.236 -1.062 -0.344 -1.595 c -0.019 -0.094 -0.003 -0.194 -0.003 -0.344 Z" />
<path class="path4" fill="#000" d="M 28.469 6.419 c -1.891 0 -3.701 0 -5.542 0 c 0 -0.716 0 -1.399 0 -2.112 c 4.463 0 8.922 0 13.413 0 c 0 0.678 0 1.361 0 2.098 c -1.81 0 -3.63 0 -5.497 0 c 0 7.376 0 14.7 0 22.047 c -0.807 0 -1.565 0 -2.374 0 c 0 -7.322 0 -14.646 0 -22.033 Z" />
<path class="path5" fill="#000" d="M 48.239 15.784 c 0 -0.233 0 -0.403 0 -0.573 c 0 -2.277 -0.002 -4.553 0.002 -6.83 c 0.001 -0.492 0.275 -0.832 0.698 -0.898 c 0.439 -0.069 0.85 0.175 0.975 0.599 c 0.04 0.134 0.036 0.284 0.037 0.426 c 0.004 2.694 0.005 5.389 0.006 8.083 c 0 0.572 -0.374 0.973 -0.92 0.97 c -1.858 -0.011 -3.715 -0.03 -5.573 -0.042 c -0.347 -0.002 -0.653 -0.067 -0.853 -0.393 c -0.184 -0.298 -0.2 -0.593 -0.02 -0.892 c 0.197 -0.327 0.502 -0.452 0.874 -0.451 c 1.412 0.002 2.824 0.001 4.236 0.001 c 0.157 0.001 0.313 0.001 0.539 0.001 Z" />
<path class="path6" fill="#fff" d="M 155.52 23.016 c -0.312 -0.012 -0.505 0.102 -0.679 0.342 c -0.559 0.763 -1.231 1.405 -2.03 1.916 c -1.669 1.069 -3.507 1.339 -5.411 0.991 c -3.904 -0.703 -6.432 -4.54 -5.633 -8.401 c 0.841 -4.084 4.985 -6.324 8.756 -5.453 c 1.832 0.427 3.297 1.429 4.348 3.003 c 0.09 0.132 0.24 0.306 0.36 0.312 c 0.817 0.024 1.64 0.012 2.498 0.012 c -0.042 -0.138 -0.048 -0.24 -0.096 -0.318 c -0.42 -0.697 -0.744 -1.477 -1.279 -2.078 c -2.786 -3.105 -6.276 -4.096 -10.251 -2.984 c -4.096 1.147 -7.272 4.985 -6.828 9.747 c 0.198 2.084 0.943 3.928 2.372 5.435 c 2.354 2.486 5.315 3.435 8.672 3.063 c 2.21 -0.246 4.108 -1.243 5.633 -2.87 c 0.727 -0.775 1.327 -1.645 1.772 -2.708 c -0.775 -0.001 -1.489 0.017 -2.204 -0.007 Z M 109.345 4.003 c -0.114 0.006 -0.27 0.174 -0.324 0.306 c -0.522 1.177 -1.021 2.36 -1.525 3.543 c -2.054 4.81 -4.108 9.621 -6.168 14.431 c -0.33 0.769 -0.673 1.537 -1.039 2.378 c -0.108 -0.228 -0.186 -0.378 -0.246 -0.529 c -2.114 -4.907 -4.222 -9.807 -6.33 -14.713 c -0.721 -1.681 -1.435 -3.363 -2.168 -5.039 c -0.066 -0.15 -0.216 -0.372 -0.336 -0.372 c -1.159 -0.03 -2.324 -0.018 -3.507 -0.018 v 24.262 h 2.39 v -21.385 c 0.12 0.096 0.174 0.21 0.222 0.324 c 1.423 3.357 2.847 6.714 4.27 10.077 c 1.496 3.543 3.003 7.086 4.492 10.641 c 0.12 0.282 0.258 0.39 0.564 0.372 c 0.444 -0.024 0.895 -0.018 1.339 0 c 0.246 0.012 0.354 -0.072 0.439 -0.294 c 0.312 -0.787 0.642 -1.567 0.967 -2.348 c 2.252 -5.321 4.498 -10.636 6.75 -15.956 c 0.396 -0.931 0.811 -1.85 1.213 -2.78 c 0.042 0.006 0.078 0.012 0.12 0.018 v 21.331 h 2.324 v -24.261 c -1.172 0 -2.313 -0.012 -3.448 0.012 Z" />
<path class="path7" fill="#000" d="M 87.7 3.99 c 1.184 0 2.348 -0.011 3.51 0.017 c 0.117 0.003 0.271 0.222 0.336 0.372 c 0.731 1.677 1.446 3.361 2.169 5.042 c 2.107 4.904 4.216 9.806 6.324 14.709 c 0.066 0.152 0.14 0.301 0.248 0.531 c 0.368 -0.841 0.711 -1.608 1.041 -2.38 c 2.057 -4.809 4.111 -9.621 6.166 -14.431 c 0.505 -1.182 1.006 -2.366 1.524 -3.542 c 0.057 -0.129 0.214 -0.303 0.327 -0.305 c 1.137 -0.023 2.274 -0.014 3.448 -0.014 c 0 8.096 0 16.169 0 24.265 c -0.748 0 -1.492 0 -2.325 0 c 0 -7.109 0 -14.222 0 -21.336 c -0.041 -0.005 -0.082 -0.01 -0.123 -0.015 c -0.403 0.927 -0.815 1.851 -1.209 2.782 c -2.252 5.317 -4.501 10.634 -6.75 15.953 c -0.33 0.78 -0.657 1.562 -0.968 2.349 c -0.087 0.219 -0.195 0.308 -0.439 0.296 c -0.446 -0.022 -0.894 -0.026 -1.339 0 c -0.307 0.018 -0.448 -0.09 -0.569 -0.377 c -1.488 -3.55 -2.992 -7.094 -4.492 -10.639 c -1.422 -3.36 -2.843 -6.72 -4.265 -10.08 c -0.048 -0.114 -0.107 -0.223 -0.226 -0.322 c 0 7.121 0 14.241 0 21.387 c -0.813 0 -1.585 0 -2.39 0 c 0 -8.059 0 -16.121 0 -24.263 Z" />
<path class="path8" fill="#000" d="M 135.655 28.256 c -0.768 0 -1.483 0 -2.235 0 c 0 -1.11 0 -2.2 0 -3.288 c -0.029 -0.014 -0.058 -0.027 -0.086 -0.041 c -0.069 0.089 -0.147 0.172 -0.207 0.266 c -1.226 1.941 -3.015 3.003 -5.255 3.351 c -3.008 0.466 -5.601 -0.463 -7.96 -2.299 c -1.707 -1.328 -2.631 -3.087 -2.991 -5.152 c -0.638 -3.662 0.522 -6.697 3.363 -9.083 c 1.368 -1.149 2.957 -1.779 4.732 -1.985 c 2.353 -0.274 4.561 0.086 6.462 1.563 c 0.721 0.561 1.285 1.324 1.911 1.984 c 0 -1.012 0 -2.114 0 -3.243 c 0.783 0 1.497 0 2.266 0 c 0 5.962 0 11.929 0 17.927 Z M 126.4 26.38 c 3.758 0.005 7.009 -3.241 7.005 -6.995 c -0.004 -3.988 -3.105 -7.142 -7.042 -7.165 c -3.935 -0.022 -7.208 3.206 -7.22 7.124 c -0.012 3.828 3.292 7.031 7.257 7.035 Z" />
<path class="path9" fill="#000" d="M 157.725 23.021 c -0.444 1.065 -1.046 1.932 -1.772 2.707 c -1.529 1.63 -3.422 2.627 -5.633 2.872 c -3.358 0.372 -6.317 -0.574 -8.671 -3.061 c -1.43 -1.511 -2.178 -3.35 -2.373 -5.438 c -0.446 -4.76 2.73 -8.6 6.826 -9.745 c 3.978 -1.112 7.465 -0.117 10.25 2.987 c 0.535 0.596 0.864 1.377 1.282 2.075 c 0.047 0.079 0.055 0.182 0.095 0.319 c -0.859 0 -1.678 0.014 -2.494 -0.014 c -0.125 -0.004 -0.273 -0.181 -0.36 -0.311 c -1.056 -1.574 -2.52 -2.578 -4.35 -3.001 c -3.77 -0.873 -7.913 1.368 -8.757 5.455 c -0.797 3.861 1.733 7.695 5.634 8.401 c 1.906 0.345 3.743 0.076 5.411 -0.991 c 0.797 -0.51 1.468 -1.156 2.027 -1.915 c 0.177 -0.24 0.367 -0.357 0.68 -0.346 c 0.714 0.024 1.429 0.007 2.204 0.007 Z" />
</symbol>
<symbol id="icon-arrow" viewBox="0 0 35 32">
<path class="path1" d="M 30.781 15.848 l -9.448 -9.448 c -0.305 -0.305 -1.219 -0.305 -1.524 0 s -0.305 1.219 0 1.524 l 7.619 7.619 h -22.552 c -0.61 0 -1.219 0.61 -1.219 1.219 s 0.61 1.219 1.219 1.219 h 22.552 l -7.619 7.314 c -0.305 0.305 -0.305 1.219 0 1.524 s 0.61 0.61 0.61 0.61 s 0.61 0 0.914 -0.305 l 9.448 -9.448 c 0.61 -0.61 0.61 -1.524 0 -1.829 Z" />
</symbol>
<symbol id="icon-google-plus" viewBox="0 0 16 16">
<path class="path1" d="M 5.091 7.147 v 1.747 h 2.888 c -0.116 0.75 -0.872 2.197 -2.888 2.197 c -1.737 0 -3.156 -1.441 -3.156 -3.216 s 1.419 -3.216 3.156 -3.216 c 0.991 0 1.65 0.422 2.028 0.784 l 1.381 -1.331 c -0.888 -0.828 -2.037 -1.331 -3.409 -1.331 c -2.816 0.003 -5.091 2.278 -5.091 5.094 s 2.275 5.091 5.091 5.091 c 2.937 0 4.888 -2.066 4.888 -4.975 c 0 -0.334 -0.037 -0.591 -0.081 -0.844 h -4.806 Z" />
<path class="path2" d="M 16 7 h -1.5 v -1.5 h -1.5 v 1.5 h -1.5 v 1.5 h 1.5 v 1.5 h 1.5 v -1.5 h 1.5 Z" />
</symbol>
<symbol id="icon-facebook" viewBox="0 0 16 16">
<path class="path1" d="M 9.5 3 h 2.5 v -3 h -2.5 c -1.93 0 -3.5 1.57 -3.5 3.5 v 1.5 h -2 v 3 h 2 v 8 h 3 v -8 h 2.5 l 0.5 -3 h -3 v -1.5 c 0 -0.271 0.229 -0.5 0.5 -0.5 Z" />
</symbol>
<symbol id="icon-twitter" viewBox="0 0 16 16">
<path class="path1" d="M 16 3.538 c -0.588 0.263 -1.222 0.438 -1.884 0.516 c 0.678 -0.406 1.197 -1.05 1.444 -1.816 c -0.634 0.375 -1.338 0.65 -2.084 0.797 c -0.6 -0.638 -1.453 -1.034 -2.397 -1.034 c -1.813 0 -3.281 1.469 -3.281 3.281 c 0 0.256 0.028 0.506 0.084 0.747 c -2.728 -0.138 -5.147 -1.444 -6.766 -3.431 c -0.281 0.484 -0.444 1.05 -0.444 1.65 c 0 1.138 0.578 2.144 1.459 2.731 c -0.538 -0.016 -1.044 -0.166 -1.488 -0.409 c 0 0.013 0 0.028 0 0.041 c 0 1.591 1.131 2.919 2.634 3.219 c -0.275 0.075 -0.566 0.116 -0.866 0.116 c -0.212 0 -0.416 -0.022 -0.619 -0.059 c 0.419 1.303 1.631 2.253 3.066 2.281 c -1.125 0.881 -2.538 1.406 -4.078 1.406 c -0.266 0 -0.525 -0.016 -0.784 -0.047 c 1.456 0.934 3.181 1.475 5.034 1.475 c 6.037 0 9.341 -5.003 9.341 -9.341 c 0 -0.144 -0.003 -0.284 -0.009 -0.425 c 0.641 -0.459 1.197 -1.038 1.637 -1.697 Z" />
</symbol>
<symbol id="icon-pinterest" viewBox="0 0 16 16">
<path class="path1" d="M 8 1.069 c -3.828 0 -6.931 3.103 -6.931 6.931 c 0 2.938 1.828 5.444 4.406 6.453 c -0.059 -0.547 -0.116 -1.391 0.025 -1.988 c 0.125 -0.541 0.813 -3.444 0.813 -3.444 s -0.206 -0.416 -0.206 -1.028 c 0 -0.963 0.559 -1.684 1.253 -1.684 c 0.591 0 0.878 0.444 0.878 0.975 c 0 0.594 -0.378 1.484 -0.575 2.306 c -0.166 0.691 0.344 1.253 1.025 1.253 c 1.231 0 2.178 -1.3 2.178 -3.175 c 0 -1.659 -1.194 -2.819 -2.894 -2.819 c -1.972 0 -3.128 1.478 -3.128 3.009 c 0 0.597 0.228 1.234 0.516 1.581 c 0.056 0.069 0.066 0.128 0.047 0.2 c -0.053 0.219 -0.169 0.691 -0.194 0.787 c -0.031 0.128 -0.1 0.153 -0.231 0.094 c -0.866 -0.403 -1.406 -1.669 -1.406 -2.684 c 0 -2.188 1.587 -4.194 4.578 -4.194 c 2.403 0 4.272 1.712 4.272 4.003 c 0 2.388 -1.506 4.313 -3.597 4.313 c -0.703 0 -1.362 -0.366 -1.588 -0.797 c 0 0 -0.347 1.322 -0.431 1.647 c -0.156 0.603 -0.578 1.356 -0.862 1.816 c 0.65 0.2 1.337 0.309 2.053 0.309 c 3.828 0 6.931 -3.103 6.931 -6.931 c 0 -3.831 -3.103 -6.934 -6.931 -6.934 Z" />
</symbol>
<symbol id="icon-plus" viewBox="0 0 32 32">
<path class="path1" d="M 891.337 457.143 h -342.766 v -341.541 c 0 -28.965 -25.893 -52.663 -54.857 -52.663 s -54.857 23.698 -54.857 52.663 v 341.541 h -338.194 c -28.965 0 -52.663 25.893 -52.663 54.857 s 23.698 54.857 52.663 54.857 h 338.194 v 339.419 c 0 28.965 25.893 52.663 54.857 52.663 s 54.857 -23.698 54.857 -52.663 v -339.419 h 342.766 c 28.965 0 52.663 -25.893 52.663 -54.857 s -23.698 -54.857 -52.663 -54.857 Z" />
</symbol>
</defs>
</svg>